<svg width="103" height="141" viewBox="0 0 103 141" fill="none" xmlns="http://www.w3.org/2000/svg">
<path d="M30.8947 139.82C15.9824 138.686 20.5017 98.3158 18.8985 86.2633C17.6546 76.9208 15.0748 64.9651 12.6378 55.7978C10.0626 46.0912 -5.06167 24.0095 3.70514 15.6072C9.42223 10.1271 67.4039 -1.37232 74.6458 1.43456C85.4535 5.62414 79.9023 29.4757 81.2843 39.21C83.1086 52.046 86.1307 68.3112 89.4292 80.774C91.5529 88.7936 110.579 123.9 97.2332 126.564L30.8901 139.82H30.8947Z" fill="#597434" stroke="#123A12" stroke-width="2" stroke-miterlimit="10"/>
<g opacity="0.4">
<path d="M81.8419 80.1754C79.0179 69.5055 76.4335 55.5863 74.8718 44.5985C72.3749 27.0474 75.4661 16.0733 69.1869 12.2663C65.5429 10.0586 60.761 11.2431 57.375 12.5382C58.1582 26.121 59.5771 40.7361 61.8989 56.2039C65.5706 80.6639 70.8039 102.621 76.498 121.772C80.5059 120.97 84.5139 120.168 88.5218 119.37C99.9468 117.089 83.6616 87.0428 81.8419 80.18V80.1754Z" fill="#7AA542"/>
</g>
</svg>
