<svg width="203" height="287" viewBox="0 0 203 287" fill="none" xmlns="http://www.w3.org/2000/svg">
<path d="M35.8021 90.2765C30.6348 120.007 25.4676 149.74 20.3027 179.471C19.8855 181.872 21.0598 184.268 23.213 185.408C46.4164 197.71 69.6174 210.011 92.8208 222.313C93.8046 222.833 94.921 223.053 96.0301 222.939C120.34 220.464 144.65 217.99 168.958 215.515C171.471 215.259 173.506 213.362 173.937 210.874C179.228 180.329 184.515 149.783 189.806 119.24C190.254 116.656 188.856 114.103 186.437 113.088C163.034 103.26 139.63 93.4345 116.227 83.6062C115.477 83.2904 114.669 83.1434 113.856 83.1699C89.6259 83.9847 65.3953 84.7971 41.1647 85.6119C38.4979 85.7011 36.2603 87.6489 35.8046 90.2765H35.8021Z" fill="white" stroke="#050505" stroke-width="3" stroke-miterlimit="10"/>
<path d="M39.542 89.2928L105.212 120.422" stroke="#050505" stroke-width="3" stroke-miterlimit="10" stroke-linecap="round"/>
<path d="M96.7197 209.642L108.325 132.024" stroke="#050505" stroke-width="3" stroke-miterlimit="10" stroke-linecap="round"/>
<path d="M121.346 122.292L180.506 120.422" stroke="#050505" stroke-width="3" stroke-miterlimit="10" stroke-linecap="round"/>
<path d="M100.194 97.4313C100.867 94.0684 109.468 92.0676 116.234 94.1287C120.885 95.5461 126.335 99.3911 125.763 102.335C125.117 105.666 116.796 107.667 110.194 105.825C105.217 104.437 99.5964 100.408 100.192 97.4289L100.194 97.4313Z" fill="#050505"/>
<path d="M53.4739 109.07C47.7062 107.19 41.7215 111.5 39.5417 116.364C36.6892 122.726 39.5682 131.754 45.9267 133.596C51.8776 135.319 58.687 130.11 60.2687 123.784C61.6239 118.363 59.4128 111.003 53.4763 109.07H53.4739Z" fill="#050505"/>
<path d="M65.1975 142.65C59.4298 140.77 53.4451 145.08 51.2654 149.945C48.4129 156.307 51.2919 165.334 57.6503 167.176C63.6013 168.9 70.4106 163.69 71.9924 157.365C73.3475 151.943 71.1364 144.584 65.1999 142.65H65.1975Z" fill="#050505"/>
<path d="M78.4065 177.041C72.6388 175.16 66.6541 179.47 64.4743 184.335C61.6218 190.697 64.5009 199.725 70.8593 201.567C76.8102 203.29 83.6196 198.081 85.2014 191.755C86.5565 186.334 84.3454 178.974 78.4089 177.041H78.4065Z" fill="#050505"/>
<path d="M127.95 134.939C121.886 135.062 117.654 141.103 117.196 146.413C116.598 153.358 122.291 160.937 128.9 160.583C135.085 160.25 139.801 153.091 139.211 146.599C138.704 141.033 134.195 134.813 127.95 134.941V134.939Z" fill="#050505"/>
<path d="M164.182 132.024C158.117 132.147 153.886 138.188 153.428 143.499C152.83 150.444 158.522 158.023 165.132 157.669C171.317 157.336 176.033 150.176 175.442 143.684C174.936 138.118 170.427 131.899 164.182 132.026V132.024Z" fill="#050505"/>
<path d="M158.886 178.058C152.822 178.181 148.59 184.222 148.132 189.533C147.534 196.478 153.227 204.057 159.836 203.702C166.021 203.37 170.737 196.21 170.147 189.718C169.64 184.152 165.131 177.933 158.886 178.06V178.058Z" fill="#050505"/>
<path d="M122.088 180.322C116.024 180.444 111.792 186.486 111.334 191.796C110.736 198.741 116.429 206.32 123.038 205.966C129.223 205.633 133.94 198.474 133.349 191.982C132.843 186.416 128.333 180.196 122.088 180.324V180.322Z" fill="#050505"/>
</svg>
