<svg width="33" height="33" viewBox="0 0 33 33" fill="none" xmlns="http://www.w3.org/2000/svg">
<path d="M16.4999 32.1234C16.0874 32.1234 15.7265 32.0203 15.3655 31.8141C11.8593 29.5969 3.7124 23.7703 3.7124 16.8609V5.05312C3.7124 4.33124 4.07334 3.66093 4.69209 3.24843C5.31084 2.83593 6.08428 2.78437 6.75459 3.04218C7.68272 3.40312 8.6624 3.60937 9.69365 3.60937C11.7046 3.60937 13.5608 2.83593 15.0046 1.49531C15.8812 0.670306 17.1702 0.670306 18.0468 1.49531C19.4905 2.88749 21.3983 3.60937 23.3577 3.60937C24.389 3.60937 25.3687 3.40312 26.2968 3.04218C26.9671 2.78437 27.7405 2.83593 28.3593 3.24843C28.978 3.66093 29.339 4.33124 29.339 5.05312V16.8609C29.339 23.7703 21.1921 29.5969 17.6858 31.7625C17.2733 31.9687 16.9124 32.1234 16.4999 32.1234ZM6.03271 5.25937V16.8094C6.03271 22.6875 13.9218 28.1016 16.4999 29.7C19.078 28.1016 26.9671 22.6875 26.9671 16.8094V5.25937C25.8327 5.72343 24.5952 5.92968 23.3577 5.92968C20.7796 5.92968 18.3562 5.00156 16.4999 3.24843C14.6437 5.00156 12.2202 5.92968 9.64209 5.92968C8.40459 5.98124 7.16709 5.72343 6.03271 5.25937Z" fill="#7AA542"/>
</svg>
