<svg width="35" height="35" viewBox="0 0 35 35" fill="none" xmlns="http://www.w3.org/2000/svg">
<g clip-path="url(#clip0_198_625)">
<rect width="35" height="35" fill="#FAFAFA"/>
<path d="M30.8438 34.0703H23.6797C21.9297 34.0703 20.4531 32.6484 20.4531 30.8438V25.0469C20.4531 24.6094 20.125 24.2812 19.6875 24.2812H15.3125C14.875 24.2812 14.5469 24.6094 14.5469 25.0469V30.8438C14.5469 32.6484 13.125 34.0703 11.3203 34.0703H4.15625C2.40625 34.0703 0.929688 32.6484 0.929688 30.8438V12.4141C0.929688 11.4844 1.36719 10.6641 2.13281 10.1719L16.0781 1.36719C16.9531 0.820312 18.0469 0.820312 18.8672 1.36719L32.8125 10.2266C33.5781 10.7188 34.0156 11.5391 34.0156 12.4688V30.8438C34.0703 32.5938 32.5938 34.0703 30.8438 34.0703ZM15.3125 21.8203H19.6875C21.4922 21.8203 22.9141 23.2422 22.9141 25.0469V30.8438C22.9141 31.2812 23.2422 31.6094 23.6797 31.6094H30.8438C31.2812 31.6094 31.6094 31.2812 31.6094 30.8438V12.4141C31.6094 12.3594 31.5547 12.3047 31.5547 12.25L17.5547 3.44531C17.5 3.39062 17.4453 3.39062 17.3906 3.44531L3.5 12.25C3.44531 12.3047 3.39062 12.3594 3.39062 12.4141V30.8438C3.39062 31.2812 3.71875 31.6094 4.15625 31.6094H11.3203C11.7578 31.6094 12.0859 31.2812 12.0859 30.8438V25.0469C12.0859 23.2969 13.5078 21.8203 15.3125 21.8203Z" fill="#7AA542"/>
</g>
<defs>
<clipPath id="clip0_198_625">
<rect width="35" height="35" fill="white"/>
</clipPath>
</defs>
</svg>
