<svg width="33" height="33" viewBox="0 0 33 33" fill="none" xmlns="http://www.w3.org/2000/svg">
<g clip-path="url(#clip0_133_9067)">
<path d="M16.5515 10.1063C13.0452 10.1063 10.1577 12.9938 10.1577 16.5C10.1577 20.0578 13.0452 22.8938 16.5515 22.8938C20.0577 22.8938 22.9452 20.0578 22.9452 16.5C22.9452 12.9938 20.0577 10.1063 16.5515 10.1063ZM16.5515 20.625C14.2827 20.625 12.478 18.7688 12.478 16.5516C12.478 14.2828 14.2827 12.4781 16.5515 12.4781C18.8202 12.4781 20.6249 14.2828 20.6249 16.5C20.6249 18.7688 18.7687 20.625 16.5515 20.625Z" fill="#7AA542"/>
<path d="M31.2984 19.6453L28.4109 18.0469C28.5141 17.4797 28.5656 16.9125 28.5656 16.3453C28.5656 15.7266 28.5141 15.1594 28.4625 14.5922L31.4016 12.9422C32.0719 12.5813 32.3297 11.7563 32.0203 11.0344L29.0297 5.98127C28.6688 5.36252 27.8438 5.10471 27.1734 5.36252L24.0797 7.06409C23.925 6.96096 23.7703 6.80627 23.6672 6.70315C23.1 6.23909 22.5844 5.77502 21.7594 5.36252C21.7078 5.36252 21.6563 5.31096 21.6563 5.20784V3.35159C21.6563 2.01096 20.5734 0.876587 19.1813 0.876587H13.8703C12.5297 0.876587 11.3953 2.01096 11.3953 3.35159V5.36252C11.3953 5.41409 11.3438 5.46565 11.2922 5.51721C10.5188 5.87815 9.95157 6.39377 9.33282 6.85784C9.22969 6.96096 9.07501 7.06409 8.97188 7.16721L6.23907 5.62034C5.20782 5.05315 4.33126 5.41409 3.97032 6.03284L1.13438 10.9313C0.979694 11.3438 0.928132 11.7563 1.03126 12.1688C1.13438 12.5813 1.39219 12.8906 1.75313 13.0969L4.64063 14.6438C4.53751 15.1594 4.53751 15.7266 4.53751 16.3969C4.53751 16.9641 4.58907 17.5313 4.64063 18.0985L1.65001 19.7485C0.979694 20.1094 0.721882 20.9344 1.03126 21.6563L4.02188 26.7094C4.38282 27.3281 5.15626 27.586 5.87813 27.3281L8.97188 25.6266C9.12657 25.7297 9.22969 25.8328 9.38438 25.9875C9.95157 26.5031 10.5188 26.9672 11.3438 27.3281C11.3953 27.3281 11.4469 27.3797 11.4469 27.4828V29.7C11.4469 31.0406 12.5297 32.175 13.9219 32.175H19.1813C20.5219 32.175 21.6563 31.0406 21.6563 29.7V27.3281C21.6563 27.2766 21.7078 27.225 21.7594 27.1735C22.5328 26.8125 23.0484 26.3485 23.6672 25.8328C23.8219 25.7297 23.925 25.6266 24.0797 25.4719L26.8125 27.0188C27.8438 27.586 28.6688 27.225 29.0813 26.6063L31.9688 21.7078C32.175 21.3469 32.2266 20.9344 32.1234 20.5735C32.0203 20.2125 31.6594 19.8516 31.2984 19.6453ZM27.3797 24.75L24.9047 23.3578C24.1828 22.9453 23.3578 23.0485 22.7391 23.5641C22.4813 23.7703 22.275 23.925 22.0688 24.1313C21.5531 24.5953 21.1922 24.9047 20.6766 25.111C19.8516 25.5235 19.2844 26.4 19.2844 27.3281V29.5969C19.2844 29.7 19.2328 29.7516 19.1297 29.7516H13.8703C13.7672 29.7516 13.7156 29.7 13.7156 29.5969V27.3797C13.7156 26.4516 13.1484 25.575 12.3234 25.1625C11.8078 24.9047 11.3953 24.5953 10.8797 24.1313C10.6734 23.9766 10.4672 23.7703 10.2094 23.6156C9.84844 23.3578 9.43594 23.2031 8.97188 23.2031C8.66251 23.2031 8.30157 23.3063 7.99219 23.461L5.51719 24.8531L3.45469 21.3469L5.87813 20.0063C6.60001 19.5938 7.01251 18.8203 6.90938 17.9438C6.85782 17.4281 6.80626 16.9125 6.80626 16.3969C6.80626 15.8297 6.85782 15.3141 6.90938 14.9016C7.06407 14.025 6.65157 13.1485 5.87813 12.736L3.60938 11.4469L5.62032 7.99221L8.09532 9.3844C8.81719 9.7969 9.64219 9.69377 10.2609 9.17815C10.4672 9.02346 10.6734 8.81721 10.8797 8.66252C11.3953 8.19846 11.8078 7.88909 12.3234 7.63127C13.2 7.21877 13.7156 6.34221 13.7156 5.41409V3.40315C13.7156 3.30002 13.7672 3.24846 13.8703 3.24846H19.1297C19.2328 3.24846 19.2844 3.30002 19.2844 3.40315V5.36252C19.2844 6.29065 19.8516 7.16721 20.6766 7.57971C21.1922 7.83752 21.5531 8.1469 22.0688 8.5594C22.275 8.76565 22.4813 8.92034 22.7391 9.12659C23.3578 9.64221 24.2344 9.69377 24.9047 9.28127L27.3797 7.88909L29.4422 11.3953L27.0703 12.736C26.3484 13.1485 25.9359 14.025 26.0906 14.9016C26.1422 15.3656 26.1938 15.8813 26.1938 16.3969C26.1938 16.9125 26.1422 17.4281 26.0391 17.9438C25.8844 18.8203 26.2969 19.6453 27.0703 20.0578L29.3906 21.3469L27.3797 24.75Z" fill="#7AA542"/>
</g>
<defs>
<clipPath id="clip0_133_9067">
<rect width="33" height="33" fill="white"/>
</clipPath>
</defs>
</svg>
