<svg width="36" height="36" viewBox="0 0 36 36" fill="none" xmlns="http://www.w3.org/2000/svg">
<path d="M33.75 14.7937C33.075 14.7937 32.4563 15.3562 32.4563 16.0875V26.6625C32.4563 28.8562 30.825 30.6 28.8 30.6H7.20005C5.1188 30.6 3.5438 28.8562 3.5438 26.6625V16.0312C3.5438 15.3562 2.9813 14.7375 2.25005 14.7375C1.5188 14.7375 0.956299 15.3 0.956299 16.0312V26.6062C0.956299 30.15 3.71255 33.075 7.1438 33.075H28.8C32.2313 33.075 34.9875 30.2062 34.9875 26.6062V16.0312C35.0438 15.3562 34.425 14.7937 33.75 14.7937Z" fill="#7AA542"/>
<path d="M17.1001 23.175C17.3251 23.4 17.6626 23.5687 18.0001 23.5687C18.3376 23.5687 18.6188 23.4562 18.9001 23.175L25.7626 16.3687C26.2688 15.8625 26.2688 15.075 25.7626 14.5687C25.2563 14.0625 24.4688 14.0625 23.9626 14.5687L19.2938 19.1812V4.21874C19.2938 3.54374 18.7313 2.92499 18.0001 2.92499C17.3251 2.92499 16.7063 3.48749 16.7063 4.21874V19.2937L12.0376 14.625C11.5313 14.1187 10.7438 14.1187 10.2376 14.625C9.73135 15.1312 9.73135 15.9187 10.2376 16.425L17.1001 23.175Z" fill="#7AA542"/>
</svg>
