<svg width="35" height="35" viewBox="0 0 35 35" fill="none" xmlns="http://www.w3.org/2000/svg">
<path d="M17.5 20.125C22.0391 20.125 25.7031 16.4609 25.7031 11.9219C25.7031 7.38281 22.0391 3.71875 17.5 3.71875C12.9609 3.71875 9.29688 7.38281 9.29688 11.9219C9.29688 16.4609 12.9609 20.125 17.5 20.125ZM17.5 6.17969C20.6719 6.17969 23.2422 8.75 23.2422 11.9219C23.2422 15.0938 20.6719 17.6641 17.5 17.6641C14.3281 17.6641 11.7578 15.0938 11.7578 11.9219C11.7578 8.75 14.3281 6.17969 17.5 6.17969Z" fill="#7AA542"/>
<path d="M33.6327 29.0938C29.1483 25.3203 23.4608 23.2422 17.4999 23.2422C11.539 23.2422 5.85147 25.3203 1.36709 29.0938C0.874907 29.5313 0.765532 30.2969 1.20303 30.8438C1.64053 31.3359 2.40616 31.4453 2.95303 31.0078C6.99991 27.5625 12.1405 25.7031 17.4999 25.7031C22.8593 25.7031 27.9999 27.5625 31.9921 30.9531C32.2108 31.1719 32.4843 31.2266 32.8124 31.2266C33.1405 31.2266 33.5233 31.0625 33.7421 30.7891C34.1796 30.2969 34.1249 29.5313 33.6327 29.0938Z" fill="#7AA542"/>
</svg>
