<svg width="72" height="74" viewBox="0 0 72 74" fill="none" xmlns="http://www.w3.org/2000/svg">
<rect x="6.16309" y="41.0871" width="57.522" height="32.8697" fill="#4D2B1B"/>
<path d="M6.93296 45.1953C-2.31116 43.1409 -2.31081 31.8419 6.93296 30.8148C6.93296 1.04048 43.6505 4.45554 62.4011 18.4886V28.7604C75.7544 28.7604 73.7 46.2224 62.4011 45.1953V55.467C55.6892 69.5073 49.9639 74.1318 34.6673 73.9562C20.0236 73.9769 13.2726 71.228 6.93344 55.467L6.93296 45.1953Z" fill="#D9D9D9"/>
<path d="M6.93296 45.1953C-2.31116 43.1409 -2.31081 31.8419 6.93296 30.8148C6.93296 1.04048 43.6505 4.45554 62.4011 18.4886V28.7604C75.7544 28.7604 73.7 46.2224 62.4011 45.1953V55.467C55.6892 69.5073 49.9639 74.1318 34.6673 73.9562C20.0236 73.9769 13.2726 71.228 6.93344 55.467L6.93296 45.1953Z" fill="#83493B"/>
<path d="M19.2598 51.3589V47.2502H48.0208V51.3589H19.2598Z" fill="#FFFDF1"/>
<path d="M48.0208 51.3589H19.2598C21.1954 60.5699 24.3215 63.0855 33.6403 63.685C44.2317 63.3572 46.4798 59.8498 48.0208 51.3589Z" fill="#4C1D17"/>
<path d="M6.16309 34.9241C21.4671 31.4021 28.4268 26.5554 35.9513 9.2446C41.2088 26.081 48.2001 30.581 63.6851 34.9241C64.4009 12.0984 62.076 1.48545 35.9513 0C11.4851 1.6207 7.28894 11.4478 6.16309 34.9241Z" fill="#4D2B1B"/>
</svg>
