<svg width="72" height="81" viewBox="0 0 72 81" fill="none" xmlns="http://www.w3.org/2000/svg">
<path d="M6.93296 36.9784V24.6523H62.4011V34.9241C75.7544 34.9241 73.7 52.3861 62.4011 51.3589V61.6307C55.6892 75.671 49.9639 80.2954 34.6673 80.1199C20.0236 80.1406 13.2726 77.3917 6.93344 61.6307L6.93296 51.3589C-2.31116 49.3046 -2.31081 38.0056 6.93296 36.9784Z" fill="#D9D9D9"/>
<path d="M6.93296 36.9784V24.6523H62.4011V34.9241C75.7544 34.9241 73.7 52.3861 62.4011 51.3589V61.6307C55.6892 75.671 49.9639 80.2954 34.6673 80.1199C20.0236 80.1406 13.2726 77.3917 6.93344 61.6307L6.93296 51.3589C-2.31116 49.3046 -2.31081 38.0056 6.93296 36.9784Z" fill="#83493B"/>
<path d="M19.2598 57.522V53.4133H48.0208V57.522H19.2598Z" fill="#FFFDF1"/>
<path d="M48.0208 57.522H19.2598C21.1954 66.733 24.3215 69.2486 33.6403 69.8481C44.2317 69.5203 46.4798 66.0129 48.0208 57.522Z" fill="#4C1D17"/>
<path d="M62.4012 25.6795H6.93359C11.0663 6.7437 18.2326 5.08652e-05 35.6946 2.29734e-05C50.0751 0 56.4343 6.47143 62.4012 25.6795Z" fill="#3F2320"/>
</svg>
