<svg width="172" height="36" viewBox="0 0 172 36" fill="none" xmlns="http://www.w3.org/2000/svg">
<path d="M4.67065 4.41858L5.28072 18.2466H14.8129C15.5374 13.633 16.2618 9.03217 16.9863 4.41858H4.67065Z" fill="#7AA542" stroke="#123A12" stroke-width="0.25" stroke-miterlimit="10"/>
<path d="M4.67065 18.2466H15.7026C15.1561 21.5511 14.5969 24.8556 14.0504 28.1601L21.6253 24.3727V34.7819H5.40781C5.16633 29.2659 4.91214 23.7626 4.67065 18.2466Z" fill="#7AA542" stroke="#123A12" stroke-width="0.25" stroke-miterlimit="10"/>
<path d="M23.1885 12.2223L23.7985 26.0504H32.9749L33.8646 12.2223H23.1885Z" fill="#7AA542" stroke="#123A12" stroke-width="0.25" stroke-miterlimit="10"/>
<path d="M23.1885 20.6742L23.7985 34.5023H32.9749L33.8646 20.6742H23.1885Z" fill="#7AA542" stroke="#123A12" stroke-width="0.25" stroke-miterlimit="10"/>
<path d="M61.9526 12.2223L62.5627 26.0504H71.739L72.6287 12.2223H61.9526Z" fill="#7AA542" stroke="#123A12" stroke-width="0.25" stroke-miterlimit="10"/>
<path d="M61.9526 20.6742L62.5627 34.5023H71.739L72.6287 20.6742H61.9526Z" fill="#7AA542" stroke="#123A12" stroke-width="0.25" stroke-miterlimit="10"/>
<path d="M35.771 4.41858L36.3811 23.089H45.5574L46.4471 4.41858H35.771Z" fill="#7AA542" stroke="#123A12" stroke-width="0.25" stroke-miterlimit="10"/>
<path d="M35.771 15.8445L36.3811 34.5149H45.5574L46.4471 15.8445H35.771Z" fill="#7AA542" stroke="#123A12" stroke-width="0.25" stroke-miterlimit="10"/>
<path d="M118.701 4.35504L119.311 23.0255H128.488L129.377 4.35504H118.701Z" fill="#7AA542" stroke="#123A12" stroke-width="0.25" stroke-miterlimit="10"/>
<path d="M118.701 15.7809L119.311 34.4514H128.488L129.377 15.7809H118.701Z" fill="#7AA542" stroke="#123A12" stroke-width="0.25" stroke-miterlimit="10"/>
<path d="M23.1885 4.41858L23.7985 10.3413H32.9749L33.8646 4.41858H23.1885Z" fill="#7AA542" stroke="#123A12" stroke-width="0.25" stroke-miterlimit="10"/>
<path d="M81.0171 12.4891L81.6272 26.3172H90.8035L91.6932 12.4891H81.0171Z" fill="#7AA542" stroke="#123A12" stroke-width="0.25" stroke-miterlimit="10"/>
<path d="M81.0171 20.9538L81.6272 34.7819H90.8035L91.6932 20.9538H81.0171Z" fill="#7AA542" stroke="#123A12" stroke-width="0.25" stroke-miterlimit="10"/>
<path d="M92.9136 12.6163L93.5236 26.4443H102.7L103.59 12.6163H92.9136Z" fill="#7AA542" stroke="#123A12" stroke-width="0.25" stroke-miterlimit="10"/>
<path d="M92.9136 21.0809L93.5236 34.9089H102.7L103.59 21.0809H92.9136Z" fill="#7AA542" stroke="#123A12" stroke-width="0.25" stroke-miterlimit="10"/>
<path d="M81.0171 4.68549L81.6272 10.6082H90.8035L91.6932 4.68549H81.0171Z" fill="#7AA542" stroke="#123A12" stroke-width="0.25" stroke-miterlimit="10"/>
<path d="M79.7969 12.4002L73.8361 12.2223L72.6287 21.3224L78.3861 22.9873L79.7969 12.4002Z" fill="#7AA542" stroke="#123A12" stroke-width="0.25" stroke-miterlimit="10"/>
<path d="M46.5487 16.2131L51.0987 10.176C51.6325 10.3158 56.9579 11.8029 58.8516 16.963C59.9955 20.0768 59.271 22.8475 58.9533 23.8643H51.0733C51.1114 23.2034 51.1623 20.4708 49.1669 18.2593C48.2772 17.268 47.2858 16.7215 46.5868 16.4292C46.5105 16.391 46.4851 16.2894 46.536 16.2258L46.5487 16.2131Z" fill="#7AA542" stroke="#123A12" stroke-width="0.25" stroke-miterlimit="10"/>
<path d="M54.8992 34.4514H45.7737C46.6379 33.8286 49.0273 31.9222 50.0695 28.4652C50.7686 26.152 50.5398 24.1566 50.3364 23.089C53.5011 23.2415 56.6658 23.4067 59.8432 23.5592C60.0339 24.1566 60.9235 27.1688 59.3221 30.3335C57.9368 33.0533 55.5855 34.1591 54.8992 34.4514Z" fill="#7AA542" stroke="#123A12" stroke-width="0.25" stroke-miterlimit="10"/>
<path d="M157.478 16.4418C157.478 14.2049 157.466 11.9553 157.453 9.71844C163.274 9.94722 168.154 13.0865 169.794 17.6238C170.823 20.4708 170.302 23.1271 169.896 24.5252H162.016C161.978 23.5084 161.749 21.1698 160.109 18.9202C159.22 17.7001 158.215 16.9248 157.478 16.4418Z" fill="#7AA542" stroke="#123A12" stroke-width="0.25" stroke-miterlimit="10"/>
<path d="M165.828 35.125H156.703C157.567 34.5022 159.956 32.5958 160.998 29.1387C161.698 26.8256 161.469 24.8302 161.265 23.7626C164.43 23.9151 167.595 24.0803 170.772 24.2328C170.963 24.8302 171.853 27.8424 170.251 31.0071C168.866 33.7269 166.514 34.8326 165.828 35.125Z" fill="#7AA542" stroke="#123A12" stroke-width="0.25" stroke-miterlimit="10"/>
<path d="M103.564 16.8994L108.114 10.8624C108.648 11.0022 113.973 12.4892 115.867 17.6493C117.011 20.7632 116.286 23.5339 115.969 24.5506H108.089C108.127 23.8897 108.178 21.1572 106.182 18.9457C105.293 17.9543 104.301 17.4078 103.602 17.1155C103.526 17.0774 103.501 16.9757 103.551 16.9121L103.564 16.8994Z" fill="#7AA542" stroke="#123A12" stroke-width="0.25" stroke-miterlimit="10"/>
<path d="M115.892 34.4514H107.961C107.758 30.8927 107.555 27.334 107.351 23.788C110.516 23.9405 113.681 24.1058 116.858 24.2583L115.892 34.4641V34.4514Z" fill="#7AA542" stroke="#123A12" stroke-width="0.25" stroke-miterlimit="10"/>
<path d="M129.415 16.8994L133.965 10.8624C134.499 11.0022 139.824 12.4892 141.718 17.6493C142.862 20.7632 142.137 23.5339 141.82 24.5506H133.94C133.978 23.8897 134.029 21.1572 132.033 18.9457C131.144 17.9543 130.152 17.4078 129.453 17.1155C129.377 17.0774 129.352 16.9757 129.402 16.9121L129.415 16.8994Z" fill="#7AA542" stroke="#123A12" stroke-width="0.25" stroke-miterlimit="10"/>
<path d="M141.731 34.4514H133.8C133.597 30.8927 133.393 27.334 133.19 23.788C136.355 23.9405 139.519 24.1058 142.697 24.2583L141.731 34.4641V34.4514Z" fill="#7AA542" stroke="#123A12" stroke-width="0.25" stroke-miterlimit="10"/>
<path d="M157.415 16.4418C157.415 14.2049 157.427 11.9553 157.44 9.71844C151.619 9.94722 146.739 13.0865 145.099 17.6238C144.07 20.4708 144.591 23.1271 144.997 24.5252H152.877C152.916 23.5084 153.144 21.1698 154.784 18.9202C155.673 17.7001 156.678 16.9248 157.415 16.4418Z" fill="#7AA542" stroke="#123A12" stroke-width="0.25" stroke-miterlimit="10"/>
<path d="M149.065 35.125H158.19C157.326 34.5022 154.936 32.5958 153.894 29.1387C153.195 26.8256 153.424 24.8302 153.627 23.7626C150.463 23.9151 147.298 24.0803 144.121 24.2328C143.93 24.8302 143.04 27.8424 144.642 31.0071C146.027 33.7269 148.378 34.8326 149.065 35.125Z" fill="#7AA542" stroke="#123A12" stroke-width="0.25" stroke-miterlimit="10"/>
<path d="M16.3252 9.99808C16.7319 9.52782 17.4309 8.85421 18.4731 8.40938C19.5534 7.95183 20.9261 7.77389 21.0405 8.06621C21.1548 8.35853 20.0491 9.13383 19.0451 9.54053C17.9647 9.98537 16.9734 10.0235 16.3252 9.98537V9.99808Z" fill="#7AA542" stroke="#123A12" stroke-width="0.25" stroke-miterlimit="10"/>
<path d="M72.2349 28.6303C72.6416 28.1601 73.3406 27.4865 74.3828 27.0416C75.4631 26.5841 76.8357 26.4062 76.9501 26.6985C77.0645 26.9908 75.9588 27.7661 74.9547 28.1728C73.8744 28.6176 72.8831 28.6558 72.2349 28.6176V28.6303Z" fill="#7AA542" stroke="#123A12" stroke-width="0.25" stroke-miterlimit="10"/>
<path d="M57.7969 32.6847C58.2799 32.6085 59.0297 32.5577 59.8558 32.8246C60.7201 33.1042 61.5971 33.6888 61.5081 33.9176C61.4191 34.1464 60.3769 34.0447 59.5889 33.7905C58.7374 33.5109 58.1528 33.0279 57.7842 32.6847H57.7969Z" fill="#7AA542" stroke="#123A12" stroke-width="0.25" stroke-miterlimit="10"/>
<path d="M133.228 29.1006C132.745 29.0244 131.996 28.9735 131.169 29.2404C130.305 29.5201 129.428 30.1047 129.517 30.3335C129.606 30.5623 130.648 30.4606 131.436 30.2064C132.288 29.9268 132.873 29.4438 133.241 29.1006H133.228Z" fill="#7AA542" stroke="#123A12" stroke-width="0.25" stroke-miterlimit="10"/>
<path d="M103.145 30.9308C103.628 31.0071 104.377 31.0579 105.204 30.791C106.068 30.5114 106.945 29.9268 106.856 29.698C106.767 29.4692 105.725 29.5709 104.937 29.8251C104.085 30.1047 103.5 30.5877 103.132 30.9308H103.145Z" fill="#7AA542" stroke="#123A12" stroke-width="0.25" stroke-miterlimit="10"/>
<path d="M46.4473 7.64676C46.854 7.17651 47.553 6.5029 48.5952 6.05806C49.6755 5.60051 51.0481 5.42257 51.1625 5.71489C51.2769 6.00722 50.1712 6.78251 49.1671 7.18921C48.0868 7.63405 47.0955 7.67218 46.4473 7.63405V7.64676Z" fill="#7AA542" stroke="#123A12" stroke-width="0.25" stroke-miterlimit="10"/>
<path d="M33.9155 4.41857C34.1189 3.82122 34.5129 2.94426 35.3136 2.14355C36.1524 1.31743 37.3598 0.643813 37.5759 0.859877C37.792 1.08865 37.0548 2.21981 36.2795 2.96968C35.4534 3.78309 34.5383 4.1898 33.9155 4.40586V4.41857Z" fill="#7AA542" stroke="#123A12" stroke-width="0.25" stroke-miterlimit="10"/>
<path d="M96.8406 12.4892C96.9295 11.8664 97.1583 10.9259 97.8065 9.99809C98.4801 9.03216 99.5477 8.15519 99.8019 8.33312C100.056 8.51106 99.535 9.7566 98.9122 10.6463C98.2386 11.5995 97.4252 12.1587 96.8533 12.4765L96.8406 12.4892Z" fill="#7AA542" stroke="#123A12" stroke-width="0.25" stroke-miterlimit="10"/>
<path d="M113.694 13.8618C113.783 13.239 114.011 12.2985 114.66 11.3707C115.333 10.4048 116.401 9.52781 116.655 9.70574C116.909 9.88368 116.388 11.1292 115.765 12.0189C115.092 12.9721 114.278 13.5313 113.706 13.8491L113.694 13.8618Z" fill="#7AA542" stroke="#123A12" stroke-width="0.25" stroke-miterlimit="10"/>
<path d="M140.028 14.3575C140.117 13.7347 140.346 12.7942 140.994 11.8664C141.668 10.9004 142.735 10.0235 142.989 10.2014C143.244 10.3793 142.723 11.6249 142.1 12.5146C141.426 13.4678 140.613 14.027 140.041 14.3447L140.028 14.3575Z" fill="#7AA542" stroke="#123A12" stroke-width="0.25" stroke-miterlimit="10"/>
<path d="M164.914 11.8029C165.473 11.5233 166.375 11.1547 167.494 11.142C168.676 11.1293 170.01 11.4724 170.01 11.7902C170.01 12.0952 168.688 12.4003 167.608 12.413C166.451 12.413 165.511 12.0825 164.914 11.8029Z" fill="#7AA542" stroke="#123A12" stroke-width="0.25" stroke-miterlimit="10"/>
<path d="M96.7008 12.4892C96.6118 11.8664 96.383 10.9259 95.7348 9.99809C95.0612 9.03216 93.9936 8.15519 93.7394 8.33312C93.4852 8.51106 94.0063 9.7566 94.6291 10.6463C95.3027 11.5995 96.1161 12.1587 96.6881 12.4765L96.7008 12.4892Z" fill="#7AA542" stroke="#123A12" stroke-width="0.25" stroke-miterlimit="10"/>
<path d="M129.479 6.87152C130.102 6.93507 131.055 7.12571 132.008 7.73578C132.999 8.37126 133.927 9.40073 133.749 9.65492C133.571 9.90911 132.313 9.45157 131.398 8.85422C130.419 8.21874 129.822 7.43074 129.479 6.87152Z" fill="#7AA542" stroke="#123A12" stroke-width="0.25" stroke-miterlimit="10"/>
<path d="M129.466 6.73168C130.076 6.61729 131.017 6.35039 131.906 5.66407C132.847 4.95233 133.686 3.8466 133.482 3.60511C133.292 3.36363 132.059 3.93556 131.207 4.59646C130.292 5.3082 129.758 6.14704 129.453 6.73168H129.466Z" fill="#7AA542" stroke="#123A12" stroke-width="0.25" stroke-miterlimit="10"/>
<path d="M161.266 25.3895C160.643 25.453 159.69 25.6437 158.737 26.2537C157.745 26.8892 156.818 27.9187 156.995 28.1729C157.173 28.4271 158.432 27.9695 159.347 27.3722C160.325 26.7367 160.923 25.9487 161.266 25.3895Z" fill="#7AA542" stroke="#123A12" stroke-width="0.25" stroke-miterlimit="10"/>
<path d="M161.278 25.2623C160.668 25.1479 159.728 24.881 158.838 24.1947C157.898 23.483 157.059 22.3772 157.262 22.1358C157.453 21.8943 158.686 22.4662 159.537 23.1271C160.452 23.8389 160.986 24.6777 161.291 25.2623H161.278Z" fill="#7AA542" stroke="#123A12" stroke-width="0.25" stroke-miterlimit="10"/>
<path d="M33.8646 4.30417C33.7756 3.6814 33.5469 2.74088 32.8987 1.81308C32.2251 0.847152 31.1574 -0.0298089 30.9032 0.148126C30.6491 0.32606 31.1702 1.5716 31.7929 2.46128C32.4665 3.4145 33.28 3.97371 33.8519 4.29145L33.8646 4.30417Z" fill="#7AA542" stroke="#123A12" stroke-width="0.25" stroke-miterlimit="10"/>
<path d="M23.1883 20.5598C22.7816 20.0895 22.0826 19.4159 21.0404 18.9711C19.9601 18.5135 18.5874 18.3356 18.473 18.6279C18.3586 18.9202 19.4644 19.6955 20.4684 20.1022C21.5488 20.5471 22.5401 20.5852 23.1883 20.5471V20.5598Z" fill="#7AA542" stroke="#123A12" stroke-width="0.25" stroke-miterlimit="10"/>
<path d="M81.3731 33.3075C80.9664 32.8373 80.2674 32.1637 79.2252 31.7188C78.1449 31.2613 76.7722 31.0833 76.6578 31.3757C76.5435 31.668 77.6492 32.4433 78.6533 32.85C79.7336 33.2948 80.7249 33.3329 81.3731 33.2948V33.3075Z" fill="#7AA542" stroke="#123A12" stroke-width="0.25" stroke-miterlimit="10"/>
<path d="M61.8509 13.7474C61.4442 13.2771 60.7452 12.6035 59.703 12.1587C58.6227 11.7012 57.25 11.5232 57.1356 11.8155C57.0212 12.1079 58.127 12.8831 59.131 13.2899C60.2114 13.7347 61.2027 13.7728 61.8509 13.7347V13.7474Z" fill="#7AA542" stroke="#123A12" stroke-width="0.25" stroke-miterlimit="10"/>
<path d="M4.84845 26.2537C4.44174 25.7834 3.74272 25.1098 2.70053 24.665C1.62021 24.2074 0.247571 24.0295 0.133184 24.3218C0.0187979 24.6141 1.12453 25.3894 2.12859 25.7961C3.20891 26.241 4.20026 26.2791 4.84845 26.241V26.2537Z" fill="#7AA542" stroke="#123A12" stroke-width="0.25" stroke-miterlimit="10"/>
<path d="M80.9157 5.82932C80.2929 5.72765 79.3524 5.49887 78.4373 4.85068C77.4714 4.17707 76.5944 3.10946 76.7851 2.85527C76.963 2.60107 78.2085 3.13488 79.0982 3.75765C80.0387 4.43126 80.6107 5.25739 80.9284 5.82932H80.9157Z" fill="#7AA542" stroke="#123A12" stroke-width="0.25" stroke-miterlimit="10"/>
<path opacity="0.51" d="M119.692 5.37177C119.769 8.51104 119.858 11.663 119.934 14.815H121.268C121.167 11.6757 121.078 8.52375 120.976 5.37177H119.68H119.692Z" fill="#A5C474"/>
<path opacity="0.51" d="M119.616 16.6071C119.769 22.2883 119.934 27.9822 120.086 33.6634H121.268C121.154 27.9822 121.027 22.2883 120.913 16.6071H119.616Z" fill="#A5C474"/>
<path opacity="0.51" d="M36.6353 5.38452C36.7115 8.5238 36.8005 11.6758 36.8768 14.8278H38.2113C38.1096 11.6885 38.0206 8.53651 37.9189 5.38452H36.6226H36.6353Z" fill="#A5C474"/>
<path opacity="0.51" d="M5.29298 4.99046C5.49634 9.23547 5.69969 13.4805 5.90304 17.7255L7.23755 17.6874C7.02149 13.4424 6.79272 9.19734 6.57666 4.95233L5.28027 4.99046H5.29298Z" fill="#A5C474"/>
<path opacity="0.51" d="M5.29298 18.8694C5.52176 23.9659 5.75053 29.0625 5.9793 34.159L7.31381 34.1209C7.07233 29.0243 6.83085 23.9278 6.57666 18.8312L5.28027 18.8694H5.29298Z" fill="#A5C474"/>
<path opacity="0.51" d="M36.5718 16.6198C36.7243 22.3009 36.8895 27.9949 37.042 33.6761H38.224C38.1096 27.9949 37.9825 22.3009 37.8682 16.6198H36.5718Z" fill="#A5C474"/>
<path opacity="0.51" d="M93.7525 13.3661C93.8287 15.7174 93.9177 18.056 93.9939 20.4073H95.3284C95.2268 18.056 95.1378 15.7174 95.0361 13.3661H93.7397H93.7525Z" fill="#A5C474"/>
<path opacity="0.51" d="M93.676 21.7545C93.8285 25.9486 93.9938 30.1428 94.1463 34.337H95.3283C95.2139 30.1428 95.0868 25.9486 94.9724 21.7545H93.676Z" fill="#A5C474"/>
<path opacity="0.51" d="M81.8433 13.2136C81.9195 15.5649 82.0085 17.9035 82.0848 20.2548H83.4193C83.3176 17.9035 83.2286 15.5649 83.127 13.2136H81.8306H81.8433Z" fill="#A5C474"/>
<path opacity="0.51" d="M81.5891 5.16841C81.7925 6.82066 81.9958 8.47292 82.1992 10.1252H83.6099C83.343 8.47292 83.0761 6.80795 82.7965 5.1557C82.3898 5.1557 81.9958 5.1557 81.5891 5.16841Z" fill="#A5C474"/>
<path opacity="0.51" d="M81.7671 21.602C81.9196 25.7962 82.0848 29.9903 82.2373 34.1845H83.4193C83.3049 29.9903 83.1779 25.7962 83.0635 21.602H81.7671Z" fill="#A5C474"/>
<path opacity="0.51" d="M24.1797 13.0103C24.256 15.3615 24.3449 17.7001 24.4212 20.0514H25.7557C25.654 17.7001 25.565 15.3615 25.4634 13.0103H24.167H24.1797Z" fill="#A5C474"/>
<path opacity="0.51" d="M23.9255 4.95241C24.1289 6.60466 24.3322 8.25691 24.5356 9.90916H25.9464C25.6795 8.25691 25.4126 6.59195 25.133 4.9397C24.7262 4.9397 24.3322 4.9397 23.9255 4.95241Z" fill="#A5C474"/>
<path opacity="0.51" d="M62.8933 12.934C62.9696 15.2853 63.0585 17.6239 63.1348 19.9752H64.4693C64.3676 17.6239 64.2787 15.2853 64.177 12.934H62.8806H62.8933Z" fill="#A5C474"/>
<path opacity="0.51" d="M74.4211 12.8705C74.0144 15.5649 73.6076 18.2594 73.2009 20.9665L74.51 21.208C74.9422 18.45 75.3616 15.692 75.7937 12.934C75.3361 12.9086 74.8786 12.8959 74.4211 12.8705Z" fill="#A5C474"/>
<path opacity="0.51" d="M114.875 24.665C114.583 27.7534 114.291 30.8291 113.999 33.9176H115.32C115.638 30.8546 115.943 27.7915 116.261 24.7285C115.803 24.7031 115.333 24.6904 114.875 24.665Z" fill="#A5C474"/>
<path opacity="0.51" d="M140.651 24.8175C140.358 27.9059 140.066 30.9817 139.774 34.0701H141.095C141.413 31.0071 141.718 27.9441 142.036 24.8811C141.578 24.8556 141.108 24.8429 140.651 24.8175Z" fill="#A5C474"/>
<path opacity="0.51" d="M62.8171 21.3224C62.9697 25.5166 63.1349 29.7107 63.2874 33.9049H64.4694C64.355 29.7107 64.2279 25.5166 64.1135 21.3224H62.8171Z" fill="#A5C474"/>
<path opacity="0.51" d="M24.1035 21.2969C24.256 25.4911 24.4213 29.6853 24.5738 33.8795H25.7558C25.6414 29.6853 25.5143 25.4911 25.3999 21.2969H24.1035Z" fill="#A5C474"/>
<path opacity="0.51" d="M58.3563 22.8221H56.9201C57.0599 22.1993 57.6573 19.0855 55.7254 16.0479C53.9969 13.3153 51.366 12.4383 50.6797 12.2223C50.9339 11.841 51.1881 11.4724 51.4296 11.0911C52.065 11.2691 55.4585 12.2858 57.4031 15.781C59.1824 18.9965 58.5342 22.0976 58.3563 22.8221Z" fill="#A5C474"/>
<path opacity="0.51" d="M141.439 23.572H140.003C140.142 22.9492 140.74 19.8354 138.808 16.7978C137.079 14.0652 134.449 13.1882 133.762 12.9722C134.016 12.5909 134.271 12.2223 134.512 11.841C135.148 12.0189 138.541 13.0357 140.486 16.5309C142.265 19.7464 141.617 22.8475 141.439 23.572Z" fill="#A5C474"/>
<path opacity="0.51" d="M169.184 23.5719C168.713 23.5465 168.231 23.5211 167.76 23.4957C167.913 22.5679 168.243 19.6701 166.553 16.7977C163.909 12.2985 158.673 11.8664 158.19 11.8409V10.4302C158.559 10.4429 165.345 10.9131 168.231 16.5308C169.756 19.5176 169.4 22.4281 169.184 23.5719Z" fill="#A5C474"/>
<path opacity="0.51" d="M115.435 23.572H113.998C114.138 22.9492 114.736 19.8354 112.804 16.7978C111.075 14.0652 108.444 13.1882 107.758 12.9722C108.012 12.5909 108.266 12.2223 108.508 11.841C109.143 12.0189 112.537 13.0357 114.481 16.5309C116.261 19.7464 115.613 22.8475 115.435 23.572Z" fill="#A5C474"/>
<path opacity="0.51" d="M54.7083 33.765C53.5263 33.7905 52.3443 33.8286 51.1624 33.854C51.6707 33.765 55.4328 33.0152 57.3011 29.4819C58.5466 27.1433 58.267 24.881 58.1272 24.093C58.5085 24.1311 58.9025 24.182 59.2838 24.2201C59.4236 24.8937 59.9574 27.8296 58.1781 30.6639C57.0215 32.4941 55.4582 33.3965 54.7083 33.765Z" fill="#A5C474"/>
<path opacity="0.51" d="M165.562 34.3624C164.38 34.3878 163.198 34.4259 162.016 34.4514C162.524 34.3624 166.286 33.6125 168.154 30.0792C169.4 27.7407 169.12 25.4784 168.98 24.6904C169.362 24.7285 169.756 24.7793 170.137 24.8175C170.277 25.4911 170.811 28.427 169.031 31.2612C167.875 33.0914 166.311 33.9938 165.562 34.3624Z" fill="#A5C474"/>
<path opacity="0.51" d="M145.646 23.5719C146.116 23.5465 146.599 23.5211 147.069 23.4957C146.917 22.5679 146.586 19.6701 148.276 16.7977C150.92 12.2985 156.156 11.8664 156.639 11.8409V10.4302C156.271 10.4429 149.484 10.9131 146.599 16.5308C145.074 19.5176 145.429 22.4281 145.646 23.5719Z" fill="#A5C474"/>
<path opacity="0.51" d="M149.268 34.3624C150.45 34.3878 151.632 34.4259 152.814 34.4514C152.305 34.3624 148.543 33.6125 146.675 30.0792C145.429 27.7407 145.709 25.4784 145.849 24.6904C145.467 24.7285 145.073 24.7793 144.692 24.8175C144.552 25.4911 144.019 28.427 145.798 31.2612C146.955 33.0914 148.518 33.9938 149.268 34.3624Z" fill="#A5C474"/>
</svg>
