<svg width="209" height="266" viewBox="0 0 209 266" fill="none" xmlns="http://www.w3.org/2000/svg">
<g filter="url(#filter0_g_131_1579)">
<path d="M6.72852 252V246.58H14.1992C22.5 246.58 28.457 243.895 32.0703 238.524C34.2188 235.399 35.293 228.172 35.293 216.844V88.5237C35.293 76.0237 33.9258 68.26 31.1914 65.2327C27.3828 60.9358 21.7188 58.7874 14.1992 58.7874H6.72852V53.3674H87.5879C117.275 53.3674 139.834 56.7366 155.264 63.4749C170.791 70.2131 183.242 81.4436 192.617 97.1663C202.09 112.791 206.826 130.955 206.826 151.658C206.826 166.307 204.434 179.783 199.648 192.088C194.961 204.393 187.93 214.989 178.555 223.875C169.277 232.664 157.656 239.549 143.691 244.53C129.824 249.51 113.76 252 95.498 252H6.72852ZM63.418 237.645C75.625 240.379 86.0254 241.746 94.6191 241.746C105.85 241.746 116.25 239.696 125.82 235.594C135.488 231.395 143.838 225.487 150.869 217.869C157.9 210.155 163.418 200.828 167.422 189.891C171.426 178.953 173.428 166.698 173.428 153.123C173.428 139.451 171.426 127.147 167.422 116.209C163.516 105.272 157.998 95.9944 150.869 88.3772C143.838 80.6624 135.391 74.7542 125.527 70.6526C115.762 66.551 105.068 64.5002 93.4473 64.5002C89.0527 64.5002 84.3652 64.8909 79.3848 65.6721C74.4043 66.3557 69.082 67.3811 63.418 68.7483V237.645Z" fill="#7AA542"/>
</g>
<path d="M76.3245 21.0739L99.4965 10.2539C105.357 7.52133 111.691 5.91018 118.167 5.73643C130.471 5.38893 146.678 9.84326 149.031 34.9423C149.031 34.9423 150.721 57.1034 134.468 57.2614C118.214 57.4193 76.3402 57.2614 76.3402 57.2614V21.0739H76.3245Z" fill="#F7F3F4" stroke="#2E0C10" stroke-width="0.25" stroke-miterlimit="10"/>
<path d="M136.869 0.00256365C133.062 -0.0922094 130.108 2.45087 129.224 5.94168C128.908 7.18952 129.398 8.50055 130.44 9.22714L137.69 14.2343C139.301 15.2926 141.45 15.0557 142.745 13.6183C144.293 11.8966 145.114 9.51146 144.751 6.95259C144.198 3.0511 140.818 0.0815412 136.869 0.00256365Z" fill="#2E0C10"/>
<path d="M147.452 26.1917C144.893 27.5343 141.275 29.9194 138.18 33.9631C130.819 43.551 132.351 54.829 132.762 57.3247C145.288 61.0682 157.829 64.8275 170.355 68.5711C177.115 69.3292 178.758 68.7448 178.964 68.0656C179.122 67.5444 178.837 66.4387 176.626 65.0645C174.888 63.9904 173.467 62.474 172.614 60.6101L171.808 58.841C170.371 55.7135 167.812 53.2494 164.637 51.9384C160.609 49.3163 156.581 46.7101 152.553 44.088C151.543 41.7661 150.532 39.1282 149.647 36.1429C148.557 32.4941 147.894 29.1297 147.483 26.1759L147.452 26.1917Z" fill="#2E0C10"/>
<path d="M90.6036 14.4081C92.3727 16.3509 94.7894 19.5258 96.3374 23.9802C99.4807 33.0468 96.8428 41.0551 95.8477 43.6456C96.3532 43.8983 99.5597 45.5252 104.046 47.7998C111.454 51.5591 114.913 53.6441 116.571 57.0402C117.014 57.9563 117.077 59.0146 116.793 59.9939C116.145 62.2527 113.791 63.5637 111.533 62.9161L91.188 57.0718C85.4859 57.1665 79.7837 57.2455 74.0815 57.3403C66.9735 43.0769 68.5373 27.929 77.0669 20.1103C81.3632 16.1772 86.6389 14.8346 90.6036 14.4081Z" fill="#2E0C10"/>
<path d="M37.2148 15.8771C34.9876 17.2987 31.8285 19.7312 29.1749 23.6169C23.7728 31.5462 24.2309 39.9652 24.4994 42.7295C23.9466 42.84 20.4242 43.5666 15.496 44.5933C7.36127 46.2834 3.49137 47.3891 0.979884 50.2323C0.300677 50.9905 -0.0152318 52.0014 0.000563703 53.0281C0.0321547 55.3817 1.975 57.2613 4.31274 57.2139C11.3733 57.1034 18.4181 56.9928 25.4787 56.898C31.481 56.898 37.4675 56.9138 43.4698 56.9296C41.1005 53.502 38.3363 48.2737 39.284 42.5715C40.7214 33.9471 49.5511 30.6459 48.7613 24.9279C48.4296 22.4954 46.2656 19.1152 37.1832 15.8929L37.2148 15.8771Z" fill="#2E0C10"/>
<path d="M27.311 22.0216C29.3802 18.5466 31.6232 15.1506 34.0241 11.8493C34.6401 11.0122 35.2403 10.4909 35.8879 9.55897C36.1249 9.21147 36.1723 8.80079 36.0143 8.42169C33.9451 3.31974 29.8067 1.66121 25.0838 2.4036C23.9307 2.57735 22.7935 2.94065 21.7826 3.50929C20.045 4.50441 18.8446 6.11555 17.9285 7.78987C16.1909 10.9648 15.3696 14.7083 16.6174 18.0096C17.8811 21.3108 21.6404 23.8697 25.4471 23.2537C26.1263 23.1431 26.9635 22.5903 27.2952 22.0374L27.311 22.0216Z" fill="#2E0C10"/>
<path d="M18.7025 56.3454C19.1606 57.2142 20.0609 57.7355 21.0402 57.7355H21.293C24.9891 57.3248 28.9538 57.0246 33.1712 56.9141C36.0618 56.8351 38.826 56.8509 41.4638 56.9141C41.5902 56.9615 42.0009 57.151 42.5221 57.3721C48.6666 59.9942 63.4828 66.3282 73.9552 60.0732C74.3027 59.8678 74.9977 59.4414 75.8191 58.7779C76.5299 58.3831 77.4618 57.8144 78.4411 56.9931C78.4411 56.9931 79.689 56.2665 80.3998 55.0344C83.7326 49.3638 85.328 42.6191 84.8067 36.0482C83.8906 24.5965 77.8093 13.7449 67.7476 8.20072C62.8825 5.51548 57.212 4.26764 51.6677 4.67832C48.2243 1.17172 41.5586 -0.265672 36.9621 1.45604C36.046 1.80354 35.1456 2.26161 34.5454 3.03559C33.9452 3.79377 33.6924 4.91526 34.1505 5.76821C34.1505 5.76821 25.9684 4.34662 27.4058 10.112C30.4544 22.3219 15.7803 32.9523 15.9383 45.5255C15.9857 49.2848 16.9808 52.9968 18.7183 56.3297L18.7025 56.3454Z" fill="#F7F3F4" stroke="#2E0C10" stroke-width="0.25" stroke-miterlimit="10"/>
<path d="M43.2172 13.903C42.9802 13.903 42.7433 13.8398 42.5222 13.7292C41.9851 13.4449 41.6692 12.9079 41.7166 12.3076C41.7482 11.6916 41.606 10.9966 41.3849 10.4122C39.8843 12.2761 37.1675 14.8191 33.1554 12.1655C32.8553 11.9128 32.8079 11.4863 33.0291 11.1862C33.2344 10.9176 33.6293 10.8229 33.9452 10.9808C34.3401 11.2651 35.4142 12.0075 36.8358 11.8654C38.3522 11.7074 39.6158 10.4596 40.911 8.69047C41.0374 8.46933 41.2743 8.34297 41.5271 8.35877C41.8588 8.37456 42.0167 8.64309 42.0325 8.67468C42.7275 9.55923 43.2014 11.1546 43.1224 12.4024C43.1224 12.4182 43.1224 12.4656 43.1698 12.4972C43.2172 12.5288 43.2488 12.4972 43.2646 12.4972C44.4334 11.5653 45.16 9.41706 44.8915 7.71115C44.8125 7.31626 45.0652 6.95296 45.4285 6.87398C45.8234 6.79501 46.2341 7.06353 46.2815 7.49001C46.4237 8.84843 46.2025 9.92252 46.013 10.5859C45.5391 12.2761 44.6704 13.2396 44.1333 13.6029C43.9596 13.7134 43.6437 13.9346 43.2014 13.9346L43.2172 13.903Z" fill="#2E0C10" stroke="#2E0C10" stroke-width="0.25" stroke-miterlimit="10"/>
<path d="M79.1202 22.8904C76.5456 19.3207 73.8129 15.8456 70.9381 12.5128C70.2116 11.6598 69.5166 11.186 68.7426 10.2224C68.4583 9.87494 68.3477 9.41687 68.4583 8.9746C69.8798 2.9881 73.8603 0.523998 78.7727 0.650362C79.9732 0.681953 81.1736 0.903089 82.2793 1.40855C84.1748 2.2773 85.6122 3.88844 86.781 5.62595C88.9608 8.91142 90.3192 12.9709 89.4663 16.825C88.6291 20.6949 85.1541 24.1067 81.1894 23.9645C80.4786 23.9329 79.5625 23.4591 79.136 22.8746L79.1202 22.8904Z" fill="#2E0C10"/>
<path d="M80.4786 24.928C80.4312 24.7069 80.3838 24.4857 80.3364 24.2646C81.2368 24.1382 84.3801 23.5538 86.9074 20.7738C89.1819 18.2623 89.6084 15.4507 89.7032 14.4872C89.9559 14.4082 90.2244 14.3292 90.4771 14.2502C90.414 15.1822 90.0665 18.6098 87.2391 21.5162C84.5854 24.2488 81.4263 24.8016 80.4628 24.928H80.4786Z" fill="#F7F3F4"/>
<path d="M66.6575 30.3141C63.9723 27.7395 60.0866 26.8075 56.3747 26.6812C54.7635 26.6338 53.105 26.7128 51.6518 27.3762C49.0771 28.545 47.5292 31.3724 47.2449 34.1998C46.7868 38.8279 49.4562 43.535 53.5473 45.7464C57.6383 47.9419 62.8982 47.6418 66.8471 45.2093C73.7971 40.9287 71.4594 34.9264 66.6575 30.3141Z" fill="#2E0C10"/>
<path d="M38.1153 29.1453C38.5576 30.3773 38.5102 31.7673 38.3048 33.0942C37.9731 35.2897 37.2149 37.4379 35.9039 39.1912C34.5929 40.9287 32.6816 42.224 30.6282 42.4925C29.0961 42.6978 27.5797 42.3345 26.0949 41.987C24.9734 41.7185 23.773 41.4026 23.0306 40.4865C22.6199 39.981 22.3987 39.3334 22.225 38.6858C20.9456 33.8839 22.9832 27.0445 27.3743 24.5014C30.7388 22.5586 36.8201 25.5281 38.1153 29.1453Z" fill="#2E0C10"/>
<path d="M53.3419 46.9783C53.2471 49.1422 55.7902 51.0061 59.0283 51.1483C62.2664 51.2904 64.9674 49.6477 65.0622 47.4995C65.157 45.3355 62.6139 43.4717 59.3758 43.3295C56.1377 43.1873 53.4367 44.8301 53.3419 46.9783Z" fill="#FE9E74"/>
<path d="M19.6027 41.4973C18.9867 43.5665 21.0085 45.999 24.1202 46.9152C27.2319 47.8313 30.2489 46.8836 30.8491 44.8144C31.4651 42.7452 29.4433 40.3127 26.3316 39.3965C23.2199 38.4804 20.2029 39.4281 19.6027 41.4973Z" fill="#FE9E74"/>
<path d="M33.0764 47.7204C32.9974 49.5685 34.4348 51.1322 36.2829 51.227C38.1309 51.306 39.6947 49.8686 39.7895 48.0205L41.3848 48.0837C41.3058 49.9318 42.7432 51.4955 44.5913 51.5903C46.4394 51.6693 48.0031 50.2319 48.0979 48.3838C48.1769 47.8152 48.7139 47.4993 49.1246 47.6098C49.4405 47.7046 49.6774 48.0521 49.6774 48.447C49.5511 51.1638 47.2449 53.2804 44.5123 53.1699C42.7748 53.0909 41.29 52.1273 40.4687 50.7215C39.5209 52.0484 37.9572 52.8697 36.2197 52.8066C33.5028 52.6802 31.3862 50.3741 31.4968 47.6414C31.5442 47.1834 31.9549 46.8517 32.3814 46.899C32.7763 46.9464 33.0764 47.2939 33.0764 47.7204Z" fill="#2E0C10"/>
<path d="M36.4568 45.7303C36.3936 47.2624 38.3681 48.5893 40.8795 48.6998C43.391 48.8104 45.476 47.6573 45.555 46.1409C45.6182 44.6088 43.6438 43.282 41.1323 43.1714C38.6208 43.0608 36.5358 44.2139 36.4568 45.7303Z" fill="#2E0C10"/>
<path d="M38.0836 45.7144C38.131 46.0777 38.7312 46.283 39.3946 46.1725C40.0738 46.0777 40.5793 45.6986 40.5161 45.3353C40.4687 44.972 39.8685 44.7667 39.205 44.8772C38.5416 44.9878 38.0204 45.3511 38.0836 45.7144Z" fill="#F7F3F4"/>
<path d="M25.7473 33.1098C25.7473 33.2362 25.6841 36.3005 27.4532 37.8959C28.2904 38.6541 29.3961 38.9542 30.7071 38.7804C32.0181 38.6067 33.029 38.038 33.6924 37.0745C35.0666 35.0685 34.4032 32.1305 34.3716 32.0042C34.2611 31.7198 33.961 31.5461 33.6608 31.6093C33.3607 31.6724 33.1554 31.9726 33.187 32.2727C33.2186 32.5254 33.5187 35.1948 32.6815 36.3795C32.2235 37.0429 31.5127 37.4378 30.5491 37.5642C29.5856 37.6905 28.8432 37.501 28.2588 36.9797C27.1373 35.9688 26.932 33.8522 26.9478 33.1256C26.9793 32.7623 26.7108 32.4464 26.3949 32.4306C26.0474 32.399 25.7157 32.715 25.7315 33.094L25.7473 33.1098Z" fill="#FCF8F9"/>
<path d="M51.8256 34.5632C51.7941 34.6896 50.8937 37.6118 52.1574 39.6336C52.7576 40.5971 53.7369 41.1815 55.0479 41.3711C56.359 41.5606 57.4804 41.2921 58.3808 40.5497C60.2605 39.0018 60.4184 35.9848 60.4184 35.8584C60.4026 35.5583 60.1499 35.3056 59.8498 35.2898C59.5339 35.274 59.2653 35.4952 59.2179 35.7953C59.1864 36.048 58.7441 38.6858 57.6226 39.6178C56.9908 40.139 56.2168 40.3128 55.2375 40.1706C54.274 40.0285 53.6105 39.6494 53.1999 38.986C52.3943 37.7065 52.7734 35.6215 52.9945 34.9265C53.1367 34.5948 52.9629 34.2157 52.647 34.1051C52.3153 33.9788 51.9204 34.1841 51.8256 34.5632Z" fill="#FCF8F9"/>
<defs>
<filter id="filter0_g_131_1579" x="4.92852" y="51.5674" width="203.698" height="202.233" filterUnits="userSpaceOnUse" color-interpolation-filters="sRGB">
<feFlood flood-opacity="0" result="BackgroundImageFix"/>
<feBlend mode="normal" in="SourceGraphic" in2="BackgroundImageFix" result="shape"/>
<feTurbulence type="fractalNoise" baseFrequency="0.76923078298568726 0.76923078298568726" numOctaves="3" seed="3965" />
<feDisplacementMap in="shape" scale="3.5999999046325684" xChannelSelector="R" yChannelSelector="G" result="displacedImage" width="100%" height="100%" />
<feMerge result="effect1_texture_131_1579">
<feMergeNode in="displacedImage"/>
</feMerge>
</filter>
</defs>
</svg>
