<svg width="405" height="573" viewBox="0 0 405 573" fill="none" xmlns="http://www.w3.org/2000/svg">
<path d="M224.549 346.847L222.697 330.892L223.876 316.145C224.054 313.897 223.688 311.64 222.803 309.566L215.813 293.178L206.813 255.536C206.452 254.02 206.149 252.49 205.913 250.945C197.254 247.98 173.98 240.948 150.933 245.853C149.547 246.146 139.147 248.461 128.395 255.864C123.791 259.035 117.345 263.588 117.677 269.21C117.783 270.99 118.615 273.662 120.688 274.783C122.54 275.784 124.609 275.144 127.351 274.297C129.102 273.753 131.599 272.757 134.288 270.808C136.352 269.383 147.565 261.957 162.632 264.767C177.92 267.621 185.732 278.879 187.089 280.915C188.705 284.587 190.827 290.343 191.727 297.635C192.034 300.118 192.645 306.404 189.658 324.51C188.749 330.006 187.358 337.505 185.232 346.399L224.549 346.847Z" fill="#FBD5C0"/>
<path d="M224.549 346.847L222.697 330.892L223.876 316.145C224.054 313.897 223.688 311.64 222.803 309.566L215.813 293.178L206.813 255.536C206.452 254.02 206.149 252.49 205.913 250.945C196.932 246.801 181.163 241.213 162.17 243.547C136.958 246.647 120.347 261.957 120.544 262.318C120.746 262.688 138.608 247.094 160.318 249.506C171.979 250.8 181.345 256.913 188.278 263.15C189.682 266.134 191.597 270.639 193.228 276.314C200.434 301.446 194.324 322.936 192.304 329.698C190.269 336.518 186.483 346.539 179.113 357.44C194.262 353.907 209.406 350.374 224.554 346.847H224.549Z" fill="#F9C3A1"/>
<path d="M252.701 335.122L247.337 315.606L245.976 297.014C245.769 294.179 244.879 291.436 243.378 289.024L231.535 269.956L213.11 224.801C212.369 222.982 211.7 221.134 211.109 219.257C199.756 217.23 169.42 212.932 141.653 223.463C139.984 224.093 127.472 228.974 115.498 240.255C110.37 245.087 103.216 251.999 104.708 258.939C105.179 261.138 106.728 264.3 109.528 265.302C112.025 266.192 114.483 264.998 117.73 263.42C119.808 262.409 122.723 260.686 125.706 257.745C128.005 255.575 140.547 244.173 159.852 244.784C179.44 245.405 191.327 257.928 193.41 260.2C197.259 278.133 201.112 296.07 204.966 314.003C206.991 323.441 206.438 333.106 203.652 342.115L252.711 335.132L252.701 335.122Z" fill="#FBD5C0"/>
<path d="M252.701 335.122L247.337 315.606L245.976 297.014C245.769 294.179 244.874 291.436 243.378 289.024L231.535 269.956L213.11 224.801C212.369 222.982 211.7 221.129 211.109 219.257C199.126 215.82 178.416 211.883 155.21 218.438C124.402 227.135 106.646 249.39 106.959 249.799C107.272 250.208 125.85 228.945 154.041 226.211C166.971 224.96 178.286 227.958 186.781 231.366C188.48 233.946 190.433 237.507 191.842 242.012C194.219 249.607 193.916 256.234 193.411 260.195C197.259 278.128 201.112 296.066 204.961 313.998C206.986 323.437 206.438 333.101 203.647 342.111L252.706 335.127L252.701 335.122Z" fill="#FACAB0"/>
<path d="M249.954 352.564C250.835 325.501 251.72 298.438 252.6 271.375L243.378 214.107C243.008 211.796 242.729 209.477 242.546 207.147C229.937 201.747 195.946 188.618 160.948 193.349C158.846 193.633 143.038 195.924 126.139 205.776C118.904 209.996 108.758 216.08 108.619 224.517C108.575 227.193 109.518 231.274 112.496 233.185C115.147 234.889 118.317 234.167 122.507 233.209C125.186 232.598 129.025 231.38 133.268 228.776C136.515 226.88 154.103 217.043 176.309 222.938C198.837 228.921 209.242 246.623 211.046 249.818C210.69 271.63 210.339 293.443 209.983 315.255C209.795 326.733 206.563 337.779 200.91 347.467C217.256 349.166 233.603 350.86 249.949 352.559L249.954 352.564Z" fill="#FBD5C0"/>
<path d="M252.6 271.375C249.526 252.287 246.452 233.199 243.378 214.107C243.008 211.796 242.728 209.477 242.546 207.142C229.586 199.942 206.654 189.816 178.007 191.168C139.979 192.968 113.434 213.977 113.689 214.535C113.944 215.093 141.177 195.452 174.567 199.865C189.884 201.887 202.185 208.403 211.113 214.636C212.388 218.077 213.692 222.731 214.115 228.334C214.827 237.767 212.701 245.366 211.051 249.823C210.695 271.635 210.344 293.447 209.988 315.259C209.8 326.738 206.567 337.784 200.915 347.472C218.141 322.108 235.373 296.739 252.6 271.375Z" fill="#FACAB0"/>
<path d="M249.709 461.086L249.367 461.187C231.794 466.452 213.028 466.216 195.594 460.503C189.523 458.516 185.247 453.062 184.756 446.69L182.596 418.549C171.402 409.761 161.79 399.124 154.17 387.102L147.984 377.346C139.31 372.143 128.453 364.462 117.595 353.402C108.705 344.344 102.158 335.401 97.4194 327.884C85.4746 295.065 86.6436 285.554 90.266 283.249C93.7441 281.035 101.018 284.505 101.937 284.943C108.57 288.11 111.361 293.837 112.101 295.503C113.15 297.895 114.877 301.23 117.662 304.719C120.496 308.271 123.219 310.461 126.548 313.017C130.983 316.419 136.866 320.756 144.101 325.622C145.982 326.06 147.868 326.502 149.749 326.94C152.068 327.749 156.325 328.894 161.679 328.399C167.216 327.884 171.301 325.858 173.432 324.601L182.312 318.441C191.659 306.755 202.675 290.281 211.209 268.878C215.645 257.745 218.598 247.311 220.59 238.085C221.355 223.314 216.313 215.161 213.812 211.811C199.443 192.593 167.212 196.126 154.704 197.497C144.563 198.609 136.481 200.992 131.363 202.772C129.415 203.74 125.518 205.338 120.539 205.034C115.233 204.712 107.575 202.156 106.949 198.253C106.054 192.67 119.87 186.25 126.466 183.189C136.193 178.669 151.467 173.139 172.542 171.513C181.615 170.872 219.007 169.255 244.302 195.418C249.709 201.011 253.677 206.96 256.612 212.62L258.204 227.256L265.055 253.789C265.92 257.149 265.964 260.667 265.17 264.045L259.984 286.204L256.862 375.628C256.727 379.468 255.741 383.227 253.966 386.64C251.248 391.871 250.132 397.791 250.753 403.658L253.778 454.636C254.216 457.505 252.48 460.263 249.699 461.095L249.709 461.086Z" fill="#FBD3BC"/>
<path d="M234.632 405.468C242.931 404.823 249.107 410.001 251.508 416.215L250.762 403.653C250.137 397.786 251.258 391.871 253.976 386.64C250.844 392.458 246.082 399.336 234.637 405.468H234.632Z" fill="#F9C3A1"/>
<path d="M208.997 422.048C200.362 423.92 190.019 422.452 182.596 418.554L184.265 440.279C186.296 429.518 204.167 424.512 208.997 422.048Z" fill="#F9C3A1"/>
<path d="M90.2614 281.868C89.7226 282.233 87.7407 283.778 87.7743 291.286C87.7888 294.304 88.1496 298.9 89.968 304.416C90.8243 308.926 92.7004 311.823 94.3408 311.751C95.5002 311.698 96.9963 310.139 97.1021 308.363C97.1646 307.289 96.7028 306.461 96.4767 306.101C95.5627 301.788 94.7834 296.908 94.3456 291.537C94.0426 287.807 93.9367 284.303 93.9704 281.064C92.9457 280.977 91.5074 281.03 90.2662 281.872L90.2614 281.868Z" fill="#EBB9A4"/>
</svg>
