<svg width="364" height="515" viewBox="0 0 364 515" fill="none" xmlns="http://www.w3.org/2000/svg">
<path d="M158.361 207.717L159.887 207.393L158.361 207.717L158.166 205.645L158.361 207.717Z" fill="#FBD3BC"/>
<path d="M157.656 200.091C156.367 186.772 155.083 173.458 153.795 160.139C151.551 153.641 146.056 148.913 139.622 148.031C131.667 146.937 123.556 151.894 120.516 160.139C121.234 176.814 121.947 193.49 122.665 210.166C123.218 210.737 130.819 218.35 157.66 200.091H157.656Z" fill="#FBD3BC"/>
<path d="M238.615 272.374C238.668 272.396 238.715 272.417 238.767 272.443C238.715 272.422 238.668 272.4 238.615 272.374Z" fill="#FBD3BC"/>
<path d="M239.493 210.006L239.389 213.185L243.147 99.5914C243.332 93.9463 240.695 88.5824 236.116 85.2818C232.325 82.5523 227.344 82.1111 223.133 84.1312C219.021 86.1081 216.271 90.1267 215.925 94.6773L203.235 200.602C205.159 211.238 232.51 215.716 239.497 210.006H239.493Z" fill="#FBD3BC"/>
<path d="M240.172 272.949C240.172 272.949 240.198 272.958 240.211 272.963C240.198 272.963 240.185 272.954 240.172 272.949Z" fill="#FBD3BC"/>
<path d="M161.296 199.533C161.296 199.533 163.108 204.737 168.655 207.272C176.974 211.074 192.197 211.944 198.54 200.844L198.92 206.428C198.959 207.012 199.279 207.531 199.755 207.834C199.755 207.834 198.929 206.446 198.92 206.428C198.484 205.689 197.935 195.523 197.338 158.845C197.29 157.833 196.759 149.151 189.469 144.289C184.946 141.27 180.16 141.283 177.882 141.495C176.714 141.603 171.587 142.191 167.38 146.037C162.455 150.535 161.141 156.886 161.154 161.129C161.21 175.958 161.266 190.782 161.318 205.611C161.309 203.582 161.301 201.557 161.296 199.529V199.533Z" fill="#FBD3BC"/>
<path d="M122.081 220.842L120.352 221.75L122.081 220.842Z" fill="#FBD3BC"/>
<path d="M245.066 273.3C243.544 272.941 242.213 273.101 241.447 273.244C227.867 273.066 183.524 279.464 160.514 320.753C156.951 327.146 156.562 279.473 191.164 262.477C202.518 256.901 230.439 252.675 238.641 241.359L239.035 223.857L239.329 214.941C218.454 210.875 185.033 207.726 158.931 213.293C120.196 221.555 91.1459 241.09 91.068 241.108C90.5795 237.786 89.8834 232.478 89.0705 225.972C97.0216 246.069 117.511 224.086 119.284 216.412C116.832 202.276 114.381 188.139 111.929 173.998C109.954 166.991 103.408 162.362 96.5374 162.825C88.9451 163.34 82.6889 169.962 82.6543 178.06C83.212 180.716 83.7482 183.398 84.2627 186.106C87.9637 205.55 90.1601 224.294 91.228 242.159L98.7857 350.194C99.8752 357.314 102.863 364.01 107.433 369.582L112.85 376.183C112.85 376.183 120.62 384.307 139.605 387.17C129.95 387.824 114.273 381.915 112.95 387.651L112.85 376.187L113.14 409.145C112.28 417.797 118.047 425.717 126.543 427.547C149.471 432.478 173.139 432.902 196.227 428.793L207.282 426.824C215.376 425.384 221.295 418.38 221.369 410.153L221.779 375.469L221.567 393.339C216.738 388.507 198.687 388.408 188.66 387.317C208.51 386.612 221.779 375.474 221.779 375.474L245.3 356.094C249.961 352.253 253.981 347.694 257.203 342.585C257.203 342.585 264.337 321.761 278.855 306.513C267.696 303.281 262.175 298.086 259.196 294.007C253.238 285.849 252.261 275.013 245.066 273.313V273.3Z" fill="#FBD3BC"/>
<path d="M122.873 215.136C122.95 216.918 123.007 218.289 123.046 219.168C123.007 218.289 122.946 216.923 122.873 215.136Z" fill="#FBD3BC"/>
<path d="M122.868 215.085C122.868 214.989 122.86 214.885 122.855 214.79C122.855 214.89 122.864 214.989 122.868 215.085Z" fill="#FBD3BC"/>
<path d="M188.661 387.222C208.51 386.517 221.779 375.378 221.779 375.378L221.568 393.248C216.738 388.416 198.687 388.317 188.661 387.226V387.222Z" fill="#F9C3A1"/>
<path d="M139.605 387.084C129.95 387.737 114.273 381.828 112.95 387.564L112.85 376.101C112.85 376.101 120.62 384.224 139.605 387.088V387.084Z" fill="#F9C3A1"/>
<path d="M160.514 320.675C156.951 327.069 156.562 279.395 191.164 262.399C202.518 256.823 230.44 252.597 238.641 241.281L237.954 271.976C239.887 273.001 241.992 273.425 244.046 273.317C234.932 272.205 185.318 276.159 160.51 320.679L160.514 320.675Z" fill="#F9C3A1"/>
<path d="M91.068 241.025C90.5794 237.703 89.8833 232.396 89.0662 225.89C97.0173 245.987 117.507 224.004 119.28 216.33L120.347 221.668L122.077 220.759C122.695 220.435 123.071 219.786 123.041 219.085C122.972 217.511 122.838 214.375 122.656 210.083C128.964 225.483 154.716 214.422 157.652 200.009L158.356 207.635L159.882 207.311C160.721 207.133 161.318 206.389 161.318 205.533L161.296 199.451C161.296 199.451 163.108 204.655 168.655 207.19C176.974 210.992 192.197 211.861 198.54 200.762L198.92 206.346C198.972 207.129 199.526 207.786 200.287 207.977C201.346 208.241 202.392 207.518 202.522 206.437L203.231 200.519C205.155 211.156 232.506 215.633 239.493 209.923L239.329 214.855C218.454 210.789 185.033 207.639 158.931 213.207C120.196 221.469 91.1458 241.004 91.068 241.021V241.025Z" fill="#F9C3A1"/>
<path d="M161.171 161.242C162.118 204.841 163.428 236.613 164.28 241.025C164.907 244.274 166.463 246.895 166.463 246.895C166.619 247.159 167.894 249.27 169.875 251.022C173.545 254.271 178.902 255.638 183.382 255.244C193.213 254.383 198.129 245.468 198.808 244.209C199.245 243.396 199.552 242.678 199.759 242.154C199.988 240.796 200.36 238.352 200.585 235.272C200.974 229.965 200.689 225.955 200.589 224.441C200.144 217.762 198.787 193.49 196.841 160.139C197.07 169.854 189.655 177.999 180.459 178.739C170.64 179.526 161.604 171.636 161.18 161.246L161.171 161.242Z" fill="#FACAB0"/>
<path d="M190.156 247.951C196.378 243.526 196.798 236.341 196.836 235.458C197.589 213.54 197.835 191.189 197.507 168.418C197.468 165.654 197.42 162.894 197.364 160.143C193.529 161.83 186.836 164.183 178.232 164.239C170.821 164.291 164.894 162.617 161.18 161.246L163.873 193.507L167.03 239.096C167.138 239.646 168.737 247.133 175.91 250.006C183.04 252.861 189.274 248.591 190.165 247.955L190.156 247.951Z" fill="#FBD3BC"/>
<path d="M193.136 245.516C190.641 250.343 185.604 253.211 180.454 252.766C173.865 252.199 170.571 246.511 170.298 246.022C170.156 238.547 170.017 231.068 169.875 223.593C171.094 217.55 176.589 213.484 182.227 214.029C187.082 214.496 191.242 218.307 192.292 223.424C192.573 230.786 192.854 238.149 193.14 245.516H193.136Z" fill="#EBB9A4"/>
<path d="M120.512 160.139C121.035 217.013 121.545 236.561 122.004 238.326C122.177 239.005 124.187 244.196 124.187 244.196C124.343 244.46 125.618 246.571 127.598 248.323C131.269 251.572 136.626 252.938 141.105 252.545C150.937 251.684 155.853 242.769 156.532 241.51C156.969 240.697 157.276 239.979 157.483 239.455C157.712 238.097 158.084 235.653 158.309 232.573C158.551 229.229 158.529 226.396 158.456 224.384C158.417 223.337 158.365 222.498 158.335 222.027C158.335 222.027 158.326 221.884 158.313 221.741C158.253 220.893 156.852 201.774 153.799 160.139C153.211 168.76 146.341 175.547 138.183 176.04C129.315 176.576 121.195 169.543 120.521 160.139H120.512Z" fill="#FACAB0"/>
<path d="M147.88 245.247C152.321 242.09 153.773 236.903 154.56 232.755C158.395 212.497 154.288 165.593 153.795 160.134C148.814 160.982 142.787 161.618 135.951 161.531C130.127 161.462 124.935 160.883 120.516 160.134C120.875 170.356 121.234 180.578 121.593 190.799L124.749 236.388C124.857 236.938 126.457 244.425 133.63 247.298C140.759 250.153 146.994 245.883 147.885 245.247H147.88Z" fill="#FBD3BC"/>
<path d="M150.859 242.816C148.364 247.644 143.327 250.512 138.178 250.066C131.589 249.5 128.294 243.811 128.022 243.322C127.879 235.848 127.741 228.368 127.598 220.893C128.817 214.85 134.313 210.784 139.951 211.329C144.806 211.796 148.965 215.607 150.016 220.725C150.297 228.087 150.578 235.45 150.863 242.816H150.859Z" fill="#EBB9A4"/>
<path d="M82.6501 178.06C84.9329 195.138 87.2158 212.216 89.4987 229.298C89.6068 235.203 91.1243 239.581 92.2442 242.137C93.632 245.299 94.8426 248.059 97.8865 250.114C101.933 252.843 106.317 252.372 107.053 252.281C115.302 251.269 119.154 242.712 119.626 241.627C119.945 240.891 120.162 240.247 120.304 239.78C120.404 238.586 120.555 236.444 120.529 233.758C120.503 230.843 120.283 228.394 120.075 226.655C119.967 225.751 119.863 225.029 119.803 224.622C119.803 224.614 119.768 224.384 119.764 224.376C117.148 207.293 114.411 190.25 111.549 173.25C110.377 179.903 105.336 185.098 99.0755 186.227C93.0743 187.309 87.5271 184.371 84.5179 180.863C83.6272 179.825 83.0306 178.826 82.6458 178.069L82.6501 178.06Z" fill="#FACAB0"/>
<path d="M112.401 245.472C116.041 242.405 116.91 237.79 117.299 234.178C119.197 216.477 112.786 178.951 111.929 173.998C108.254 173.336 102.712 172.778 96.1223 173.817C90.3633 174.721 85.7889 176.529 82.6543 178.06C83.692 185.436 84.7296 192.811 85.7673 200.186L91.7425 239.447C91.8765 239.914 93.7919 246.286 100.208 248.262C106.585 250.226 111.683 246.087 112.409 245.472H112.401Z" fill="#FBD3BC"/>
<path d="M114.809 243.154C112.993 247.514 108.834 250.352 104.341 250.334C98.5911 250.313 95.3354 245.619 95.063 245.217C94.4101 238.75 93.7573 232.287 93.1001 225.821C93.727 220.5 98.1976 216.589 103.118 216.659C107.355 216.719 111.229 219.721 112.504 224.077C113.274 230.436 114.039 236.791 114.809 243.149V243.154Z" fill="#EBB9A4"/>
<path d="M173.597 270.687C171.375 274.104 174.418 281.376 176.952 285.152C177.631 286.169 179.455 288.695 185.526 292.826C191.752 297.065 196.823 299.168 199.759 300.5C199.759 300.5 209.976 305.128 220.491 313.365C232.986 323.149 234.581 329.98 246.657 335.257C251.292 337.282 254.902 338.861 256.809 337.303C261.997 333.06 252.745 306.989 235.152 290.123C212.994 268.879 178.526 263.117 173.601 270.691L173.597 270.687Z" fill="#FACAB0"/>
<path d="M197.645 254.106C204.074 253.6 208.999 254.457 212.272 255.313C216.863 256.516 223.025 259.57 235.152 265.63C236.389 266.249 237.405 266.759 238.066 267.092V271.046L197.645 254.106Z" fill="#FACAB0"/>
<path d="M272.936 287.41C268.198 281.488 264.319 280.874 242.087 270.652C228.706 264.497 228.52 263.991 221.784 261.343C211.96 257.485 203.469 255.075 197.351 253.566L193.546 253.497C182.754 253.302 173.8 261.806 173.437 272.603C173.182 280.165 176.477 283.495 182.508 288.055C190.351 291.788 198.531 296.075 206.923 301.01C227.707 313.231 244.824 326.498 258.608 338.917C261.807 327.471 266.823 320.511 270.956 316.207C274.735 312.275 277.61 310.735 278.847 306.504C281.346 297.956 274.138 288.924 272.928 287.415L272.936 287.41Z" fill="#FBD3BC"/>
<path d="M173.095 276.458C170.99 270.968 172.43 263.753 176.693 258.272C182.145 251.26 189.335 250.793 189.944 250.763C196.231 254.812 202.518 258.856 208.8 262.905C212.873 267.659 212.077 276.055 207.369 282.02C203.313 287.159 197.018 289.647 191.994 287.938C185.694 284.11 179.395 280.286 173.095 276.458Z" fill="#EBB9A4"/>
</svg>
