<svg width="385" height="545" viewBox="0 0 385 545" fill="none" xmlns="http://www.w3.org/2000/svg">
<path d="M175.225 225.398L176.84 225.054L175.225 225.398L175.024 223.209L175.225 225.398Z" fill="#FBD3BC"/>
<path d="M173.469 222.381C174.055 208.236 174.645 194.086 175.23 179.941C173.826 172.804 168.754 167.05 162.142 165.187C153.965 162.88 144.751 166.899 140.365 175.098C139.469 192.859 138.572 210.621 137.676 228.382C140.15 236.032 144.581 238.188 145.633 238.65C153.43 242.088 166.116 236.366 173.474 222.381H173.469Z" fill="#FBD3BC"/>
<path d="M260.563 219.57C259.47 205.109 258.377 190.648 257.284 176.187C255.217 169.215 249.629 163.96 242.87 162.729C234.515 161.204 225.712 166.066 222.117 174.644C222.003 190.694 221.893 206.743 221.779 222.793C224.125 226.107 226.672 228.172 228.721 229.467C242.23 238.037 259.429 229.522 261.148 228.639C260.952 225.617 260.755 222.596 260.563 219.575V219.57Z" fill="#FBD3BC"/>
<path d="M260.115 293.821C260.17 293.844 260.22 293.867 260.275 293.894C260.22 293.871 260.17 293.848 260.115 293.821Z" fill="#FBD3BC"/>
<path d="M261.761 294.43C261.761 294.43 261.789 294.439 261.803 294.444C261.789 294.444 261.775 294.434 261.761 294.43Z" fill="#FBD3BC"/>
<path d="M178.335 216.737C178.335 216.737 180.251 222.244 186.118 224.926C194.917 228.95 211.019 229.87 217.727 218.124L218.13 224.033C218.171 224.651 218.509 225.201 219.012 225.521C219.012 225.521 218.139 224.052 218.13 224.033C217.668 223.251 217.087 212.493 216.456 173.679C216.406 172.607 215.843 163.42 208.133 158.275C203.35 155.079 198.287 155.093 195.877 155.317C194.643 155.432 189.219 156.054 184.769 160.124C179.561 164.885 178.17 171.605 178.184 176.096C178.244 191.788 178.303 207.476 178.358 223.168C178.349 221.021 178.34 218.879 178.335 216.732V216.737Z" fill="#FBD3BC"/>
<path d="M136.857 239.286L135.024 240.252L136.857 239.286Z" fill="#FBD3BC"/>
<path d="M270.578 293.702C268.273 294.81 265.662 295.185 263.106 294.745C248.742 294.558 201.841 301.328 177.503 345.023C173.735 351.788 173.323 301.337 209.921 283.352C221.93 277.451 251.463 272.978 260.138 261.003L260.554 242.482L260.865 233.047C238.786 228.744 203.437 225.411 175.829 231.303C134.859 240.046 104.133 260.719 104.051 260.738C104.174 258.069 104.27 255.345 104.339 252.576C104.412 249.614 104.448 246.707 104.458 243.855C105.427 250.758 108.047 252.443 109.122 252.942C114.523 255.455 124.666 248.506 133.89 234.599C132.852 219.373 131.813 204.143 130.775 188.918C130.766 188.204 130.606 182.134 125.763 178.71C120.884 175.263 114.011 176.453 110.018 180.321C106.172 184.052 106.182 189.124 106.204 190.131C105.541 214.036 104.878 237.941 104.215 261.841L112.209 376.169C113.361 383.704 116.521 390.791 121.355 396.687L127.085 403.672C127.085 403.672 135.303 412.269 155.383 415.3C145.171 415.991 128.589 409.738 127.19 415.808L127.085 403.677L127.391 438.554C126.481 447.71 132.582 456.092 141.568 458.028C165.819 463.247 190.851 463.695 215.272 459.346L226.965 457.264C235.526 455.739 241.786 448.328 241.864 439.621L242.298 402.917L242.074 421.827C236.966 416.714 217.874 416.609 207.269 415.455C228.264 414.709 242.298 402.921 242.298 402.921L267.176 382.413C272.105 378.348 276.358 373.523 279.765 368.117C279.765 368.117 287.311 346.08 302.667 329.944C287.443 326.483 273.143 310.191 270.573 293.711L270.578 293.702Z" fill="#FBD3BC"/>
<path d="M137.694 233.253C137.777 235.139 137.836 236.59 137.877 237.519C137.836 236.59 137.772 235.144 137.694 233.253Z" fill="#FBD3BC"/>
<path d="M137.69 233.194C137.69 233.093 137.681 232.983 137.676 232.882C137.676 232.988 137.685 233.093 137.69 233.194Z" fill="#FBD3BC"/>
<path d="M309.165 285.068C308.173 276.911 308.237 268.662 309.353 260.522L312.389 238.375C313.016 233.811 309.426 229.76 304.821 229.843C295.3 230.012 286.584 235.212 281.901 243.507C274.863 255.977 270.226 269.655 268.232 283.837L267.354 290.081C267.048 292.269 266.179 294.256 264.912 295.904C264.775 296.911 262.868 313.198 275.654 323.818C287.26 333.464 301.181 330.296 302.672 329.93C305.077 324.528 307.487 319.126 309.892 313.725C310.025 313.336 310.194 312.722 310.437 311.99C313.555 302.468 310.052 292.388 309.161 285.064L309.165 285.068Z" fill="#FBD3BC"/>
<path d="M207.273 415.364C228.268 414.617 242.303 402.83 242.303 402.83L242.079 421.74C236.971 416.627 217.878 416.522 207.273 415.368V415.364Z" fill="#F9C3A1"/>
<path d="M155.392 415.217C145.18 415.908 128.599 409.655 127.199 415.725L127.094 403.594C127.094 403.594 135.312 412.191 155.392 415.222V415.217Z" fill="#F9C3A1"/>
<path d="M177.507 344.935C173.739 351.701 173.328 301.25 209.926 283.264C221.934 277.364 251.467 272.891 260.142 260.916L259.415 293.4C261.459 294.484 263.686 294.933 265.859 294.819C256.219 293.642 203.743 297.826 177.503 344.94L177.507 344.935Z" fill="#F9C3A1"/>
<path d="M104.055 260.651C104 258.435 103.996 256.128 104.055 253.738C104.151 249.939 104.398 246.35 104.741 242.99C105.395 250.566 108.038 252.342 109.127 252.859C114.326 255.345 124.286 248.245 133.894 234.516L135.024 240.165L136.853 239.204C137.507 238.861 137.905 238.174 137.873 237.432C137.8 235.766 137.658 232.447 137.466 227.906C144.138 244.203 171.375 232.498 174.48 217.245L175.225 225.315L176.84 224.972C177.727 224.784 178.358 223.997 178.358 223.09L178.335 216.654C178.335 216.654 180.251 222.161 186.118 224.844C194.917 228.868 211.019 229.788 217.727 218.041L218.13 223.951C218.185 224.78 218.77 225.475 219.575 225.677C220.695 225.956 221.802 225.192 221.939 224.047L222.689 217.785C224.724 229.041 253.653 233.779 261.043 227.737L260.869 232.955C240.199 228.117 208.604 223.64 175.834 231.211C158.218 235.281 139.935 242.912 136.153 244.51C122.855 250.131 112.03 255.954 104.051 260.646L104.055 260.651Z" fill="#F9C3A1"/>
<path d="M178.202 176.219C179.204 222.358 180.59 255.981 181.49 260.651C182.154 264.088 183.8 266.863 183.8 266.863C183.964 267.142 185.313 269.376 187.408 271.23C191.29 274.668 196.956 276.114 201.694 275.698C212.093 274.787 217.293 265.352 218.011 264.02C218.473 263.159 218.797 262.399 219.017 261.845C219.259 260.408 219.652 257.822 219.89 254.562C220.302 248.945 220 244.702 219.895 243.1C219.424 236.032 217.988 210.346 215.93 175.052C216.172 185.333 208.33 193.953 198.603 194.736C188.217 195.569 178.66 187.219 178.212 176.224L178.202 176.219Z" fill="#FACAB0"/>
<path d="M208.86 267.975C215.441 263.292 215.884 255.688 215.925 254.755C216.721 231.559 216.982 207.906 216.634 183.809C216.593 180.884 216.543 177.963 216.483 175.052C212.427 176.837 205.348 179.327 196.248 179.387C188.409 179.442 182.14 177.67 178.211 176.219L181.06 210.36L184.399 258.604C184.513 259.186 186.205 267.11 193.792 270.149C201.333 273.171 207.927 268.652 208.869 267.98L208.86 267.975Z" fill="#FBD3BC"/>
<path d="M212.011 265.398C209.372 270.506 204.045 273.541 198.598 273.07C191.629 272.47 188.144 266.451 187.856 265.933C187.705 258.023 187.559 250.108 187.408 242.198C188.698 235.803 194.51 231.5 200.473 232.077C205.609 232.571 210.008 236.604 211.119 242.019C211.416 249.811 211.714 257.602 212.016 265.398H212.011Z" fill="#EBB9A4"/>
<path d="M140.123 182.294C138.289 224.436 137.703 255.189 138.138 257.702C138.732 261.131 140.173 264.011 140.173 264.011C140.328 264.299 141.577 266.588 143.589 268.533C147.316 272.136 152.913 273.834 157.665 273.624C168.096 273.171 173.702 263.974 174.475 262.674C174.974 261.832 175.33 261.09 175.573 260.545C175.879 259.122 176.382 256.553 176.762 253.308C177.173 249.783 177.283 246.789 177.297 244.656C177.306 243.548 177.288 242.656 177.274 242.157C177.274 242.138 177.265 241.868 177.265 241.854C176.734 221.621 175.984 201.433 175.024 181.282C171.937 187.924 165.393 192.305 158.113 192.603C150.668 192.905 143.667 188.895 140.123 182.298V182.294Z" fill="#FACAB0"/>
<path d="M165.16 266.222C169.989 263.095 171.75 257.712 172.797 253.326C177.791 232.374 175.577 188.611 175.234 182.234C171.86 180.408 165.247 177.419 156.43 177.162C149.232 176.956 143.52 178.659 140.141 179.959C140.063 189.119 139.981 198.275 139.903 207.435L141.124 255.775C141.211 256.361 142.555 264.349 150 267.719C157.4 271.065 164.186 266.84 165.155 266.212L165.16 266.222Z" fill="#FBD3BC"/>
<path d="M168.421 263.786C165.562 268.776 160.107 271.573 154.683 270.863C147.746 269.957 144.526 263.791 144.261 263.264C144.458 255.354 144.655 247.444 144.851 239.534C146.42 233.203 152.415 229.16 158.346 229.994C163.454 230.712 167.675 234.933 168.549 240.394C168.508 248.19 168.462 255.99 168.421 263.786Z" fill="#EBB9A4"/>
<path d="M105.793 205.008L106.634 253.734C106.301 259.213 107.384 263.383 108.235 265.833C109.287 268.868 110.206 271.509 112.872 273.638C116.416 276.462 120.514 276.348 121.204 276.32C128.919 275.986 133.117 268.341 133.634 267.371C133.986 266.711 134.233 266.13 134.397 265.709C134.58 264.61 134.873 262.633 135.047 260.147C135.234 257.446 135.211 255.157 135.147 253.532C135.115 252.685 135.07 252.008 135.042 251.628C135.042 251.619 135.024 251.404 135.024 251.399C133.853 235.377 132.568 219.382 131.169 203.42C129.5 209.783 124.323 214.251 118.666 214.525C114.861 214.713 110.375 213.029 107.75 209.408C106.566 207.773 106.04 206.135 105.788 205.018L105.793 205.008Z" fill="#FACAB0"/>
<path d="M126.664 270.406C130.263 267.833 131.402 263.617 132.028 260.298C135.088 244.033 131.9 208.79 131.47 204.139C128.265 203.214 123.115 202.175 116.841 202.807C112.296 203.264 108.596 204.459 105.967 205.549C106.026 212.356 106.085 219.163 106.145 225.97C106.753 238.412 107.357 250.859 107.965 263.301C108.052 263.745 109.364 269.788 115.158 272.09C120.92 274.379 125.946 270.918 126.664 270.401V270.406Z" fill="#FBD3BC"/>
<path d="M129.065 268.433C127.062 272.337 123.001 274.668 118.84 274.32C113.517 273.876 110.842 269.289 110.622 268.895C110.489 262.857 110.361 256.819 110.229 250.776C111.198 245.892 115.625 242.596 120.18 243.022C124.099 243.388 127.469 246.455 128.329 250.589C128.571 256.535 128.818 262.482 129.061 268.433H129.065Z" fill="#EBB9A4"/>
<path d="M222.433 176.883C220.517 219.241 219.721 250.149 220.261 254.489C220.658 257.684 221.994 260.326 221.994 260.326C222.131 260.591 223.228 262.72 225.035 264.551C228.382 267.938 233.486 269.618 237.858 269.527C247.447 269.33 252.793 261.003 253.529 259.827C254.005 259.062 254.353 258.389 254.586 257.895C254.897 256.595 255.414 254.242 255.834 251.271C256.557 246.148 256.543 242.239 256.543 240.76C256.543 234.251 256.804 210.616 257.087 178.133C256.676 187.572 248.956 194.992 239.993 195.111C230.422 195.235 222.172 186.995 222.433 176.883Z" fill="#FACAB0"/>
<path d="M244.9 262.889C251.22 259.003 252.094 252.058 252.19 251.207C254.344 229.994 256.036 208.323 257.197 186.212C257.339 183.525 257.472 180.847 257.595 178.174C253.767 179.561 247.123 181.406 238.777 180.902C231.588 180.467 225.95 178.458 222.438 176.888L222.954 208.359L223.05 252.791C223.119 253.331 224.184 260.701 230.953 263.951C237.679 267.183 243.999 263.448 244.905 262.894L244.9 262.889Z" fill="#FBD3BC"/>
<path d="M247.951 260.719C245.22 265.242 240.149 267.696 235.183 266.927C228.831 265.947 226.004 260.216 225.771 259.726C226.119 252.466 226.471 245.201 226.818 237.941C228.392 232.159 233.984 228.57 239.417 229.467C244.095 230.236 247.882 234.201 248.568 239.236C248.362 246.396 248.156 253.56 247.951 260.719Z" fill="#EBB9A4"/>
</svg>
