<svg width="255" height="114" viewBox="0 0 255 114" fill="none" xmlns="http://www.w3.org/2000/svg">
<path d="M110.65 25.1823L138.34 12.2529C145.343 8.98757 152.911 7.06232 160.65 6.85469C175.354 6.43944 194.72 11.7622 197.532 41.7546C197.532 41.7546 199.552 68.2362 180.129 68.4249C160.707 68.6137 110.669 68.4249 110.669 68.4249V25.1823H110.65Z" fill="#F7F3F4" stroke="#2E0C10" stroke-width="0.25" stroke-miterlimit="10"/>
<path d="M182.998 0.00306345C178.449 -0.110187 174.92 2.92869 173.863 7.10007C173.485 8.59119 174.07 10.1578 175.316 11.0261L183.98 17.0094C185.905 18.2741 188.472 17.9909 190.02 16.2733C191.869 14.2159 192.851 11.3658 192.417 8.30807C191.756 3.64594 187.717 0.0974385 182.998 0.00306345Z" fill="#2E0C10"/>
<path d="M195.644 31.2978C192.587 32.9022 188.264 35.7523 184.565 40.5843C175.769 52.0414 177.6 65.5182 178.091 68.5004C193.058 72.9738 208.045 77.4661 223.013 81.9394C231.092 82.8454 233.055 82.1471 233.3 81.3354C233.489 80.7126 233.149 79.3913 230.506 77.7492C228.43 76.4657 226.731 74.6537 225.712 72.4264L224.75 70.3124C223.032 66.5752 219.974 63.6307 216.18 62.0641C211.367 58.9308 206.554 55.8164 201.741 52.6832C200.533 49.9086 199.325 46.7564 198.268 43.1891C196.966 38.8289 196.173 34.8086 195.682 31.2789L195.644 31.2978Z" fill="#2E0C10"/>
<path d="M127.713 17.2171C129.827 19.5387 132.715 23.3326 134.565 28.6553C138.321 39.4896 135.169 49.0592 133.98 52.1547C134.584 52.4567 138.415 54.4008 143.776 57.1188C152.628 61.6111 156.762 64.1026 158.744 68.1607C159.272 69.2554 159.348 70.5201 159.008 71.6903C158.234 74.3894 155.422 75.9561 152.723 75.1822L128.412 68.1984C121.598 68.3117 114.784 68.4061 107.97 68.5193C99.4763 51.4752 101.345 33.3741 111.537 24.0309C116.671 19.3311 122.976 17.7267 127.713 17.2171Z" fill="#2E0C10"/>
<path d="M63.9157 18.9724C61.2544 20.6712 57.4794 23.5779 54.3084 28.2212C47.8531 37.6964 48.4005 47.7568 48.7214 51.0599C48.0607 51.1921 43.8516 52.0603 37.9626 53.2872C28.242 55.3068 23.6176 56.6281 20.6165 60.0256C19.8049 60.9316 19.4274 62.1396 19.4462 63.3664C19.484 66.1788 21.8056 68.4249 24.5991 68.3683C33.0362 68.2362 41.4545 68.104 49.8916 67.9908C57.0641 67.9908 64.2177 68.0097 71.3902 68.0286C68.559 63.9327 65.2559 57.685 66.3884 50.8712C68.106 40.5654 78.6571 36.6206 77.7134 29.7878C77.317 26.8811 74.7311 22.8418 63.878 18.9913L63.9157 18.9724Z" fill="#2E0C10"/>
<path d="M52.0812 26.3148C54.5538 22.1623 57.234 18.1042 60.103 14.1593C60.8392 13.1589 61.5564 12.5361 62.3303 11.4224C62.6134 11.0072 62.67 10.5164 62.4813 10.0634C60.0087 3.96681 55.0634 1.98494 49.4198 2.87206C48.0419 3.07969 46.6829 3.51381 45.4749 4.19331C43.3987 5.38244 41.9642 7.30768 40.8694 9.30843C38.7932 13.1023 37.8117 17.5757 39.3028 21.5206C40.8128 25.4654 45.305 28.5232 49.8539 27.7871C50.6655 27.6549 51.6659 26.9943 52.0623 26.3337L52.0812 26.3148Z" fill="#2E0C10"/>
<path d="M41.7943 67.3302C42.3416 68.3683 43.4175 68.9912 44.5878 68.9912H44.8898C49.3065 68.5004 54.0441 68.1418 59.0838 68.0097C62.5379 67.9153 65.841 67.9342 68.9931 68.0097C69.1441 68.0663 69.6349 68.2928 70.2578 68.5571C77.6001 71.6903 95.3049 79.2592 107.819 71.7847C108.234 71.5393 109.065 71.0297 110.046 70.2369C110.896 69.7651 112.009 69.0856 113.18 68.1041C113.18 68.1041 114.671 67.2358 115.52 65.7636C119.503 58.9874 121.409 50.9278 120.786 43.0758C119.691 29.3914 112.425 16.4243 100.401 9.79917C94.5876 6.59042 87.8115 5.0993 81.1864 5.59005C77.0716 1.3998 69.1064 -0.31782 63.6138 1.73955C62.519 2.1548 61.4431 2.70218 60.7259 3.62705C60.0086 4.53305 59.7066 5.87318 60.254 6.89243C60.254 6.89243 50.4768 5.19368 52.1944 12.0831C55.8373 26.6734 38.3024 39.3763 38.4911 54.4008C38.5478 58.893 39.7369 63.3287 41.8131 67.3113L41.7943 67.3302Z" fill="#F7F3F4" stroke="#2E0C10" stroke-width="0.25" stroke-miterlimit="10"/>
<path d="M71.0883 16.613C70.8052 16.613 70.5221 16.5375 70.2578 16.4054C69.6161 16.0657 69.2386 15.4239 69.2952 14.7067C69.3329 13.9706 69.1631 13.14 68.8988 12.4417C67.1057 14.6689 63.8592 17.7078 59.0649 14.5368C58.7063 14.2348 58.6497 13.7252 58.9139 13.3666C59.1593 13.0457 59.6312 12.9324 60.0087 13.1212C60.4806 13.4609 61.7641 14.3481 63.4628 14.1782C65.2748 13.9894 66.7848 12.4983 68.3326 10.3843C68.4836 10.12 68.7667 9.96905 69.0687 9.98792C69.4651 10.0068 69.6538 10.3277 69.6727 10.3654C70.5032 11.4224 71.0694 13.3288 70.9751 14.8199C70.9751 14.8388 70.9751 14.8954 71.0317 14.9332C71.0883 14.9709 71.1261 14.9332 71.1449 14.9332C72.5417 13.8195 73.4099 11.2526 73.0891 9.21405C72.9947 8.74218 73.2967 8.30805 73.7308 8.21367C74.2027 8.1193 74.6934 8.44018 74.7501 8.9498C74.9199 10.5731 74.6557 11.8565 74.4292 12.6493C73.8629 14.6689 72.8248 15.8203 72.1831 16.2544C71.9754 16.3865 71.5979 16.6508 71.0694 16.6508L71.0883 16.613Z" fill="#2E0C10" stroke="#2E0C10" stroke-width="0.25" stroke-miterlimit="10"/>
<path d="M113.991 27.3529C110.915 23.0872 107.649 18.9347 104.214 14.9521C103.346 13.9328 102.515 13.3666 101.59 12.2152C101.251 11.7999 101.118 11.2526 101.251 10.7241C102.949 3.57043 107.706 0.625932 113.576 0.776932C115.01 0.814682 116.445 1.07893 117.766 1.68293C120.031 2.72106 121.749 4.64631 123.146 6.72256C125.75 10.6486 127.374 15.4994 126.354 20.1049C125.354 24.7293 121.201 28.8063 116.464 28.6364C115.614 28.5987 114.52 28.0324 114.01 27.3341L113.991 27.3529Z" fill="#2E0C10"/>
<path d="M115.614 29.7878C115.558 29.5236 115.501 29.2593 115.445 28.9951C116.52 28.8441 120.277 28.1457 123.297 24.8237C126.015 21.8226 126.524 18.4628 126.637 17.3114C126.939 17.2171 127.26 17.1227 127.562 17.0283C127.487 18.1419 127.072 22.2378 123.693 25.7108C120.522 28.9762 116.747 29.6368 115.596 29.7878H115.614Z" fill="#F7F3F4"/>
<path d="M99.0987 36.2242C95.8899 33.1476 91.2467 32.0339 86.811 31.8829C84.8858 31.8263 82.9039 31.9207 81.1674 32.7134C78.0908 34.1102 76.241 37.4888 75.9013 40.8674C75.3539 46.3978 78.5438 52.0226 83.4324 54.6651C88.321 57.2887 94.6064 56.9301 99.3252 54.0233C107.63 48.9082 104.837 41.7357 99.0987 36.2242Z" fill="#2E0C10"/>
<path d="M64.9915 34.8274C65.52 36.2997 65.4634 37.9607 65.218 39.5462C64.8217 42.1698 63.9157 44.7368 62.349 46.8319C60.7824 48.9082 58.4985 50.4559 56.0448 50.7768C54.2139 51.0222 52.4019 50.5881 50.6277 50.1728C49.2875 49.8519 47.853 49.4744 46.9659 48.3797C46.4752 47.7757 46.2109 47.0018 46.0033 46.2279C44.4744 40.4899 46.9093 32.3171 52.1565 29.2782C56.1769 26.9566 63.4438 30.5051 64.9915 34.8274Z" fill="#2E0C10"/>
<path d="M83.187 56.1373C83.0738 58.7232 86.1127 60.9504 89.982 61.1203C93.8514 61.2902 97.079 59.3272 97.1923 56.7602C97.3055 54.1743 94.2666 51.9471 90.3973 51.7772C86.5279 51.6073 83.3003 53.5703 83.187 56.1373Z" fill="#FE9E74"/>
<path d="M42.8701 49.5877C42.134 52.0603 44.55 54.9671 48.2683 56.0618C51.9867 57.1566 55.5918 56.0241 56.3091 53.5514C57.0452 51.0788 54.6292 48.1721 50.9108 47.0773C47.1925 45.9826 43.5873 47.1151 42.8701 49.5877Z" fill="#FE9E74"/>
<path d="M58.9705 57.0244C58.8761 59.2328 60.5937 61.1014 62.8021 61.2147C65.0105 61.3091 66.8791 59.5914 66.9923 57.3831L68.8987 57.4586C68.8043 59.6669 70.5219 61.5356 72.7303 61.6488C74.9387 61.7432 76.8073 60.0256 76.9206 57.8172C77.0149 57.1377 77.6567 56.7602 78.1475 56.8923C78.525 57.0056 78.8081 57.4208 78.8081 57.8927C78.6571 61.1392 75.9013 63.6684 72.6359 63.5363C70.5597 63.4419 68.7855 62.2906 67.804 60.6107C66.6715 62.1962 64.8028 63.1777 62.7266 63.1022C59.4801 62.9512 56.9508 60.1954 57.083 56.9301C57.1396 56.3827 57.6303 55.9863 58.1399 56.0429C58.6118 56.0996 58.9705 56.5148 58.9705 57.0244Z" fill="#2E0C10"/>
<path d="M63.0097 54.6462C62.9342 56.477 65.2936 58.0626 68.2947 58.1947C71.2958 58.3268 73.7873 56.9489 73.8817 55.1369C73.9572 53.306 71.5978 51.7206 68.5967 51.5884C65.5956 51.4563 63.1041 52.8342 63.0097 54.6462Z" fill="#2E0C10"/>
<path d="M64.9538 54.6273C65.0105 55.0614 65.7277 55.3068 66.5205 55.1747C67.3321 55.0614 67.9361 54.6084 67.8606 54.1743C67.804 53.7402 67.0867 53.4948 66.294 53.6269C65.5012 53.7591 64.8783 54.1932 64.9538 54.6273Z" fill="#F7F3F4"/>
<path d="M50.2124 39.5651C50.2124 39.7161 50.1369 43.3778 52.2509 45.2842C53.2513 46.1902 54.5725 46.5488 56.1391 46.3412C57.7058 46.1336 58.9138 45.4541 59.7065 44.3027C61.3486 41.9056 60.5559 38.3948 60.5181 38.2438C60.386 37.9041 60.0274 37.6964 59.6688 37.7719C59.3101 37.8474 59.0648 38.2061 59.1025 38.5647C59.1403 38.8667 59.4989 42.0566 58.4985 43.4722C57.9511 44.2649 57.1018 44.7368 55.9504 44.8878C54.799 45.0388 53.9119 44.8123 53.2135 44.1894C51.8734 42.9814 51.628 40.4522 51.6469 39.5839C51.6846 39.1498 51.3638 38.7723 50.9863 38.7534C50.571 38.7157 50.1746 39.0932 50.1935 39.5462L50.2124 39.5651Z" fill="#FCF8F9"/>
<path d="M81.375 41.3016C81.3373 41.4526 80.2614 44.9444 81.7714 47.3604C82.4886 48.5118 83.6589 49.2102 85.2255 49.4367C86.7922 49.6632 88.1323 49.3423 89.2082 48.4552C91.4543 46.6054 91.643 43.0003 91.643 42.8493C91.6241 42.4907 91.3222 42.1887 90.9635 42.1698C90.586 42.1509 90.2651 42.4152 90.2085 42.7738C90.1708 43.0758 89.6423 46.2279 88.3021 47.3416C87.5471 47.9644 86.6223 48.1721 85.452 48.0022C84.3006 47.8323 83.5079 47.3793 83.0171 46.5866C82.0545 45.0577 82.5075 42.5662 82.7718 41.7357C82.9417 41.3393 82.734 40.8863 82.3565 40.7542C81.9601 40.6032 81.4883 40.8486 81.375 41.3016Z" fill="#FCF8F9"/>
<path d="M6.87549 68.1796L7.78149 88.7156H21.9377C23.0136 81.8639 24.0895 75.0312 25.1654 68.1796H6.87549Z" fill="#7AA542" stroke="#123A12" stroke-width="0.25" stroke-miterlimit="10"/>
<path d="M6.87549 88.7156H23.259C22.4474 93.6231 21.6169 98.5306 20.8052 103.438L32.0547 97.8133V113.272H7.97024C7.61161 105.08 7.23411 96.9073 6.87549 88.7156Z" fill="#7AA542" stroke="#123A12" stroke-width="0.25" stroke-miterlimit="10"/>
<path d="M34.3765 79.7688L35.2825 100.305H48.9102L50.2315 79.7688H34.3765Z" fill="#7AA542" stroke="#123A12" stroke-width="0.25" stroke-miterlimit="10"/>
<path d="M34.3765 92.3207L35.2825 112.857H48.9102L50.2315 92.3207H34.3765Z" fill="#7AA542" stroke="#123A12" stroke-width="0.25" stroke-miterlimit="10"/>
<path d="M91.9452 79.7688L92.8512 100.305H106.479L107.8 79.7688H91.9452Z" fill="#7AA542" stroke="#123A12" stroke-width="0.25" stroke-miterlimit="10"/>
<path d="M91.9452 92.3207L92.8512 112.857H106.479L107.8 92.3207H91.9452Z" fill="#7AA542" stroke="#123A12" stroke-width="0.25" stroke-miterlimit="10"/>
<path d="M53.0626 68.1796L53.9686 95.9069H67.5964L68.9176 68.1796H53.0626Z" fill="#7AA542" stroke="#123A12" stroke-width="0.25" stroke-miterlimit="10"/>
<path d="M53.0626 85.1482L53.9686 112.876H67.5964L68.9176 85.1482H53.0626Z" fill="#7AA542" stroke="#123A12" stroke-width="0.25" stroke-miterlimit="10"/>
<path d="M176.222 68.0852L177.128 95.8126H190.756L192.077 68.0852H176.222Z" fill="#7AA542" stroke="#123A12" stroke-width="0.25" stroke-miterlimit="10"/>
<path d="M176.222 85.0538L177.128 112.781H190.756L192.077 85.0538H176.222Z" fill="#7AA542" stroke="#123A12" stroke-width="0.25" stroke-miterlimit="10"/>
<path d="M34.3765 68.1796L35.2825 76.9753H48.9102L50.2315 68.1796H34.3765Z" fill="#7AA542" stroke="#123A12" stroke-width="0.25" stroke-miterlimit="10"/>
<path d="M120.258 80.1652L121.164 100.701H134.791L136.113 80.1652H120.258Z" fill="#7AA542" stroke="#123A12" stroke-width="0.25" stroke-miterlimit="10"/>
<path d="M120.258 92.7359L121.164 113.272H134.791L136.113 92.7359H120.258Z" fill="#7AA542" stroke="#123A12" stroke-width="0.25" stroke-miterlimit="10"/>
<path d="M137.925 80.3539L138.831 100.89H152.458L153.78 80.3539H137.925Z" fill="#7AA542" stroke="#123A12" stroke-width="0.25" stroke-miterlimit="10"/>
<path d="M137.925 92.9247L138.831 113.461H152.458L153.78 92.9247H137.925Z" fill="#7AA542" stroke="#123A12" stroke-width="0.25" stroke-miterlimit="10"/>
<path d="M120.258 68.5759L121.164 77.3717H134.791L136.113 68.5759H120.258Z" fill="#7AA542" stroke="#123A12" stroke-width="0.25" stroke-miterlimit="10"/>
<path d="M118.446 80.033L109.593 79.7688L107.8 93.2833L116.351 95.7559L118.446 80.033Z" fill="#7AA542" stroke="#123A12" stroke-width="0.25" stroke-miterlimit="10"/>
<path d="M69.0687 85.6955L75.8259 76.7299C76.6187 76.9375 84.5273 79.1459 87.3397 86.8092C89.0384 91.4335 87.9625 95.5483 87.4907 97.0583H75.7882C75.8448 96.0768 75.9203 92.0187 72.9569 88.7344C71.6357 87.2622 70.1634 86.4505 69.1253 86.0164C69.012 85.9598 68.9743 85.8088 69.0498 85.7144L69.0687 85.6955Z" fill="#7AA542" stroke="#123A12" stroke-width="0.25" stroke-miterlimit="10"/>
<path d="M81.4695 112.781H67.9172C69.2007 111.856 72.7492 109.025 74.297 103.891C75.3351 100.456 74.9954 97.4924 74.6934 95.9069C79.3932 96.1334 84.0931 96.3788 88.8119 96.6053C89.095 97.4924 90.4162 101.966 88.038 106.666C85.9806 110.705 82.4887 112.347 81.4695 112.781Z" fill="#7AA542" stroke="#123A12" stroke-width="0.25" stroke-miterlimit="10"/>
<path d="M233.81 86.0353C233.81 82.7133 233.791 79.3724 233.772 76.0504C242.417 76.3902 249.665 81.0523 252.1 87.7907C253.628 92.0187 252.855 95.9636 252.251 98.0398H240.548C240.491 96.5298 240.152 93.0568 237.717 89.7159C236.396 87.9039 234.904 86.7526 233.81 86.0353Z" fill="#7AA542" stroke="#123A12" stroke-width="0.25" stroke-miterlimit="10"/>
<path d="M246.21 113.782H232.658C233.942 112.857 237.49 110.025 239.038 104.891C240.076 101.456 239.736 98.4928 239.434 96.9073C244.134 97.1338 248.834 97.3792 253.553 97.6057C253.836 98.4928 255.157 102.966 252.779 107.666C250.722 111.705 247.23 113.347 246.21 113.782Z" fill="#7AA542" stroke="#123A12" stroke-width="0.25" stroke-miterlimit="10"/>
<path d="M153.742 86.7148L160.499 77.7492C161.292 77.9568 169.2 80.1652 172.013 87.8285C173.712 92.4528 172.636 96.5676 172.164 98.0776H160.461C160.518 97.0961 160.593 93.038 157.63 89.7537C156.309 88.2815 154.837 87.4698 153.798 87.0357C153.685 86.9791 153.647 86.8281 153.723 86.7337L153.742 86.7148Z" fill="#7AA542" stroke="#123A12" stroke-width="0.25" stroke-miterlimit="10"/>
<path d="M172.051 112.781H160.273C159.971 107.496 159.669 102.211 159.367 96.9451C164.067 97.1716 168.766 97.4169 173.485 97.6434L172.051 112.8V112.781Z" fill="#7AA542" stroke="#123A12" stroke-width="0.25" stroke-miterlimit="10"/>
<path d="M192.134 86.7148L198.891 77.7492C199.684 77.9568 207.592 80.1652 210.405 87.8285C212.103 92.4528 211.027 96.5676 210.556 98.0776H198.853C198.91 97.0961 198.985 93.038 196.022 89.7537C194.701 88.2815 193.228 87.4698 192.19 87.0357C192.077 86.9791 192.039 86.8281 192.115 86.7337L192.134 86.7148Z" fill="#7AA542" stroke="#123A12" stroke-width="0.25" stroke-miterlimit="10"/>
<path d="M210.424 112.781H198.645C198.343 107.496 198.042 102.211 197.74 96.9451C202.439 97.1716 207.139 97.4169 211.858 97.6434L210.424 112.8V112.781Z" fill="#7AA542" stroke="#123A12" stroke-width="0.25" stroke-miterlimit="10"/>
<path d="M233.715 86.0353C233.715 82.7133 233.734 79.3724 233.753 76.0504C225.108 76.3902 217.86 81.0523 215.425 87.7907C213.897 92.0187 214.67 95.9636 215.274 98.0398H226.977C227.034 96.5298 227.373 93.0568 229.808 89.7159C231.129 87.9039 232.621 86.7526 233.715 86.0353Z" fill="#7AA542" stroke="#123A12" stroke-width="0.25" stroke-miterlimit="10"/>
<path d="M221.314 113.782H234.867C233.583 112.857 230.035 110.025 228.487 104.891C227.449 101.456 227.789 98.4928 228.091 96.9073C223.391 97.1338 218.691 97.3792 213.972 97.6057C213.689 98.4928 212.368 102.966 214.746 107.666C216.803 111.705 220.295 113.347 221.314 113.782Z" fill="#7AA542" stroke="#123A12" stroke-width="0.25" stroke-miterlimit="10"/>
<path d="M24.184 76.4657C24.788 75.7673 25.8261 74.7669 27.3738 74.1063C28.9782 73.4268 31.0167 73.1625 31.1866 73.5967C31.3565 74.0308 29.7143 75.1822 28.2232 75.7862C26.6188 76.4468 25.1466 76.5034 24.184 76.4468V76.4657Z" fill="#7AA542" stroke="#123A12" stroke-width="0.25" stroke-miterlimit="10"/>
<path d="M107.215 104.136C107.819 103.438 108.857 102.438 110.405 101.777C112.009 101.098 114.048 100.833 114.218 101.267C114.388 101.702 112.745 102.853 111.254 103.457C109.65 104.118 108.178 104.174 107.215 104.118V104.136Z" fill="#7AA542" stroke="#123A12" stroke-width="0.25" stroke-miterlimit="10"/>
<path d="M85.773 110.158C86.4903 110.044 87.6039 109.969 88.8308 110.365C90.1143 110.78 91.4167 111.649 91.2845 111.988C91.1524 112.328 89.6047 112.177 88.4344 111.8C87.1698 111.384 86.3015 110.667 85.7542 110.158H85.773Z" fill="#7AA542" stroke="#123A12" stroke-width="0.25" stroke-miterlimit="10"/>
<path d="M197.796 104.835C197.079 104.722 195.965 104.646 194.738 105.042C193.455 105.458 192.153 106.326 192.285 106.666C192.417 107.005 193.965 106.854 195.135 106.477C196.399 106.062 197.268 105.344 197.815 104.835H197.796Z" fill="#7AA542" stroke="#123A12" stroke-width="0.25" stroke-miterlimit="10"/>
<path d="M153.119 107.553C153.836 107.666 154.95 107.742 156.177 107.345C157.46 106.93 158.763 106.062 158.63 105.722C158.498 105.382 156.951 105.533 155.78 105.911C154.516 106.326 153.647 107.043 153.1 107.553H153.119Z" fill="#7AA542" stroke="#123A12" stroke-width="0.25" stroke-miterlimit="10"/>
<path d="M68.9176 72.9738C69.5216 72.2755 70.5597 71.2751 72.1075 70.6145C73.7118 69.935 75.7504 69.6707 75.9202 70.1048C76.0901 70.5389 74.448 71.6903 72.9569 72.2943C71.3525 72.955 69.8802 73.0116 68.9176 72.955V72.9738Z" fill="#7AA542" stroke="#123A12" stroke-width="0.25" stroke-miterlimit="10"/>
<path d="M50.3069 68.1796C50.6089 67.2924 51.194 65.9901 52.3831 64.8009C53.6289 63.5741 55.422 62.5737 55.7429 62.8946C56.0638 63.2343 54.969 64.9142 53.8176 66.0278C52.5908 67.2358 51.2318 67.8398 50.3069 68.1607V68.1796Z" fill="#7AA542" stroke="#123A12" stroke-width="0.25" stroke-miterlimit="10"/>
<path d="M143.757 80.1652C143.889 79.2403 144.229 77.8436 145.192 76.4657C146.192 75.0312 147.777 73.7288 148.155 73.9931C148.532 74.2573 147.759 76.1071 146.834 77.4283C145.833 78.8439 144.625 79.6744 143.776 80.1463L143.757 80.1652Z" fill="#7AA542" stroke="#123A12" stroke-width="0.25" stroke-miterlimit="10"/>
<path d="M168.785 82.2037C168.917 81.2788 169.257 79.882 170.22 78.5042C171.22 77.0697 172.806 75.7673 173.183 76.0315C173.561 76.2958 172.787 78.1455 171.862 79.4668C170.862 80.8824 169.654 81.7129 168.804 82.1848L168.785 82.2037Z" fill="#7AA542" stroke="#123A12" stroke-width="0.25" stroke-miterlimit="10"/>
<path d="M207.894 82.9398C208.026 82.0149 208.366 80.6182 209.329 79.2403C210.329 77.8058 211.915 76.5034 212.292 76.7677C212.67 77.0319 211.896 78.8817 210.971 80.2029C209.971 81.6186 208.763 82.4491 207.913 82.9209L207.894 82.9398Z" fill="#7AA542" stroke="#123A12" stroke-width="0.25" stroke-miterlimit="10"/>
<path d="M244.852 79.1459C245.682 78.7307 247.022 78.1833 248.683 78.1644C250.439 78.1456 252.42 78.6552 252.42 79.1271C252.42 79.5801 250.457 80.0331 248.853 80.0519C247.135 80.0519 245.739 79.5612 244.852 79.1459Z" fill="#7AA542" stroke="#123A12" stroke-width="0.25" stroke-miterlimit="10"/>
<path d="M143.549 80.1652C143.417 79.2403 143.077 77.8436 142.115 76.4657C141.114 75.0312 139.529 73.7288 139.151 73.9931C138.774 74.2573 139.548 76.1071 140.473 77.4283C141.473 78.8439 142.681 79.6744 143.53 80.1463L143.549 80.1652Z" fill="#7AA542" stroke="#123A12" stroke-width="0.25" stroke-miterlimit="10"/>
<path d="M192.228 71.8224C193.153 71.9168 194.569 72.1999 195.984 73.1059C197.456 74.0497 198.834 75.5786 198.57 75.9561C198.306 76.3336 196.437 75.6541 195.078 74.7669C193.625 73.8232 192.738 72.6529 192.228 71.8224Z" fill="#7AA542" stroke="#123A12" stroke-width="0.25" stroke-miterlimit="10"/>
<path d="M192.209 71.6148C193.115 71.4449 194.512 71.0486 195.833 70.0293C197.23 68.9723 198.476 67.3302 198.174 66.9716C197.891 66.6129 196.06 67.4623 194.795 68.4438C193.436 69.5008 192.643 70.7466 192.19 71.6148H192.209Z" fill="#7AA542" stroke="#123A12" stroke-width="0.25" stroke-miterlimit="10"/>
<path d="M239.434 99.3233C238.51 99.4177 237.094 99.7008 235.678 100.607C234.206 101.551 232.828 103.079 233.092 103.457C233.357 103.834 235.225 103.155 236.584 102.268C238.038 101.324 238.925 100.154 239.434 99.3233Z" fill="#7AA542" stroke="#123A12" stroke-width="0.25" stroke-miterlimit="10"/>
<path d="M239.453 99.1346C238.547 98.9647 237.15 98.5683 235.829 97.5491C234.432 96.4921 233.187 94.8499 233.489 94.4913C233.772 94.1327 235.603 94.9821 236.867 95.9636C238.226 97.0206 239.019 98.2663 239.472 99.1346H239.453Z" fill="#7AA542" stroke="#123A12" stroke-width="0.25" stroke-miterlimit="10"/>
<path d="M50.2314 68.0097C50.0993 67.0848 49.7595 65.6881 48.7969 64.3102C47.7965 62.8757 46.211 61.5733 45.8335 61.8376C45.456 62.1018 46.2299 63.9516 47.1548 65.2728C48.1551 66.6884 49.3631 67.5189 50.2125 67.9908L50.2314 68.0097Z" fill="#7AA542" stroke="#123A12" stroke-width="0.25" stroke-miterlimit="10"/>
<path d="M34.3764 92.1508C33.7724 91.4524 32.7342 90.4521 31.1865 89.7914C29.5821 89.1119 27.5436 88.8477 27.3737 89.2818C27.2039 89.716 28.846 90.8673 30.3371 91.4713C31.9415 92.1319 33.4137 92.1886 34.3764 92.1319V92.1508Z" fill="#7AA542" stroke="#123A12" stroke-width="0.25" stroke-miterlimit="10"/>
<path d="M120.786 111.082C120.182 110.384 119.144 109.384 117.596 108.723C115.992 108.044 113.953 107.779 113.784 108.213C113.614 108.648 115.256 109.799 116.747 110.403C118.351 111.064 119.824 111.12 120.786 111.064V111.082Z" fill="#7AA542" stroke="#123A12" stroke-width="0.25" stroke-miterlimit="10"/>
<path d="M91.7942 82.0338C91.1902 81.3354 90.1521 80.3351 88.6043 79.6744C86.9999 78.9949 84.9614 78.7307 84.7916 79.1648C84.6217 79.5989 86.2638 80.7503 87.7549 81.3543C89.3593 82.0149 90.8316 82.0716 91.7942 82.0149V82.0338Z" fill="#7AA542" stroke="#123A12" stroke-width="0.25" stroke-miterlimit="10"/>
<path d="M7.13978 100.607C6.53578 99.9085 5.49765 98.9081 3.9499 98.2475C2.34553 97.568 0.30703 97.3037 0.137155 97.7378C-0.0327204 98.1719 1.6094 99.3233 3.10053 99.9273C4.7049 100.588 6.17715 100.645 7.13978 100.588V100.607Z" fill="#7AA542" stroke="#123A12" stroke-width="0.25" stroke-miterlimit="10"/>
<path d="M120.107 70.2747C119.182 70.1237 117.785 69.7839 116.426 68.8213C114.992 67.8209 113.689 66.2354 113.972 65.8579C114.236 65.4804 116.086 66.2732 117.407 67.198C118.804 68.1984 119.654 69.4253 120.126 70.2747H120.107Z" fill="#7AA542" stroke="#123A12" stroke-width="0.25" stroke-miterlimit="10"/>
<path opacity="0.51" d="M177.694 69.5952C177.808 74.2573 177.94 78.9383 178.053 83.6193H180.035C179.884 78.9572 179.752 74.2762 179.601 69.5952H177.675H177.694Z" fill="#A5C474"/>
<path opacity="0.51" d="M177.581 86.2807C177.808 94.7178 178.053 103.174 178.279 111.611H180.035C179.865 103.174 179.676 94.7178 179.506 86.2807H177.581Z" fill="#A5C474"/>
<path opacity="0.51" d="M54.3461 69.614C54.4594 74.2762 54.5915 78.9572 54.7048 83.6382H56.6866C56.5356 78.976 56.4035 74.295 56.2525 69.614H54.3273H54.3461Z" fill="#A5C474"/>
<path opacity="0.51" d="M7.80037 69.0289C8.10237 75.3332 8.40437 81.6375 8.70637 87.9417L10.6882 87.8851C10.3674 81.5808 10.0276 75.2766 9.70674 68.9723L7.78149 69.0289H7.80037Z" fill="#A5C474"/>
<path opacity="0.51" d="M7.80037 89.6404C8.14012 97.2093 8.47987 104.778 8.81962 112.347L10.8015 112.29C10.4429 104.722 10.0842 97.1527 9.70674 89.5838L7.78149 89.6404H7.80037Z" fill="#A5C474"/>
<path opacity="0.51" d="M54.2518 86.2996C54.4783 94.7367 54.7237 103.193 54.9502 111.63H56.7056C56.5357 103.193 56.347 94.7367 56.1771 86.2996H54.2518Z" fill="#A5C474"/>
<path opacity="0.51" d="M139.17 81.4676C139.284 84.9594 139.416 88.4324 139.529 91.9243H141.511C141.36 88.4324 141.228 84.9594 141.077 81.4676H139.151H139.17Z" fill="#A5C474"/>
<path opacity="0.51" d="M139.057 93.925C139.284 100.154 139.529 106.383 139.756 112.611H141.511C141.341 106.383 141.152 100.154 140.982 93.925H139.057Z" fill="#A5C474"/>
<path opacity="0.51" d="M121.485 81.2411C121.598 84.7329 121.73 88.2059 121.843 91.6978H123.825C123.674 88.2059 123.542 84.7329 123.391 81.2411H121.466H121.485Z" fill="#A5C474"/>
<path opacity="0.51" d="M121.107 69.2932C121.409 71.7469 121.711 74.2007 122.013 76.6544H124.108C123.712 74.2007 123.315 71.728 122.9 69.2743C122.296 69.2743 121.711 69.2743 121.107 69.2932Z" fill="#A5C474"/>
<path opacity="0.51" d="M121.371 93.6985C121.598 99.9273 121.843 106.156 122.07 112.385H123.825C123.655 106.156 123.466 99.9273 123.297 93.6985H121.371Z" fill="#A5C474"/>
<path opacity="0.51" d="M35.8487 80.9391C35.962 84.4309 36.0941 87.9039 36.2073 91.3958H38.1892C38.0382 87.9039 37.9061 84.4309 37.7551 80.9391H35.8298H35.8487Z" fill="#A5C474"/>
<path opacity="0.51" d="M35.4712 68.9723C35.7732 71.4261 36.0752 73.8798 36.3772 76.3336H38.4723C38.0759 73.8798 37.6796 71.4072 37.2643 68.9534C36.6603 68.9534 36.0752 68.9534 35.4712 68.9723Z" fill="#A5C474"/>
<path opacity="0.51" d="M93.3419 80.8258C93.4551 84.3177 93.5872 87.7907 93.7005 91.2826H95.6824C95.5314 87.7907 95.3992 84.3177 95.2482 80.8258H93.323H93.3419Z" fill="#A5C474"/>
<path opacity="0.51" d="M110.462 80.7314C109.858 84.7329 109.254 88.7345 108.65 92.7548L110.594 93.1135C111.235 89.0176 111.858 84.9217 112.5 80.8258C111.821 80.7881 111.141 80.7692 110.462 80.7314Z" fill="#A5C474"/>
<path opacity="0.51" d="M170.541 98.2474C170.107 102.834 169.672 107.402 169.238 111.988H171.201C171.673 107.44 172.126 102.891 172.598 98.3418C171.919 98.3041 171.22 98.2852 170.541 98.2474Z" fill="#A5C474"/>
<path opacity="0.51" d="M208.819 98.4739C208.385 103.061 207.951 107.628 207.517 112.215H209.48C209.952 107.666 210.405 103.117 210.877 98.5683C210.197 98.5306 209.499 98.5117 208.819 98.4739Z" fill="#A5C474"/>
<path opacity="0.51" d="M93.2286 93.2833C93.4551 99.512 93.7005 105.741 93.927 111.97H95.6824C95.5125 105.741 95.3238 99.512 95.1539 93.2833H93.2286Z" fill="#A5C474"/>
<path opacity="0.51" d="M35.7354 93.2455C35.9619 99.4743 36.2072 105.703 36.4337 111.932H38.1891C38.0192 105.703 37.8305 99.4743 37.6606 93.2455H35.7354Z" fill="#A5C474"/>
<path opacity="0.51" d="M86.6035 95.5105H84.4706C84.6783 94.5857 85.5654 89.9613 82.6964 85.4502C80.1294 81.392 76.2223 80.0897 75.203 79.7688C75.5805 79.2026 75.958 78.6552 76.3166 78.0889C77.2604 78.3532 82.3 79.8632 85.1879 85.0538C87.8304 89.8292 86.8678 94.4347 86.6035 95.5105Z" fill="#A5C474"/>
<path opacity="0.51" d="M209.989 96.6242H207.856C208.064 95.6993 208.951 91.0749 206.082 86.5638C203.515 82.5057 199.608 81.2033 198.589 80.8824C198.966 80.3162 199.344 79.7688 199.702 79.2025C200.646 79.4668 205.686 80.9768 208.574 86.1674C211.216 90.9428 210.254 95.5483 209.989 96.6242Z" fill="#A5C474"/>
<path opacity="0.51" d="M251.194 96.6242C250.495 96.5864 249.778 96.5487 249.08 96.5109C249.306 95.133 249.797 90.8296 247.286 86.5638C243.36 79.8821 235.584 79.2403 234.867 79.2025V77.1074C235.414 77.1263 245.493 77.8247 249.778 86.1674C252.043 90.6031 251.514 94.9254 251.194 96.6242Z" fill="#A5C474"/>
<path opacity="0.51" d="M171.371 96.6242H169.238C169.446 95.6993 170.333 91.0749 167.464 86.5638C164.897 82.5057 160.99 81.2033 159.971 80.8824C160.348 80.3162 160.726 79.7688 161.084 79.2025C162.028 79.4668 167.068 80.9768 169.956 86.1674C172.598 90.9428 171.635 95.5483 171.371 96.6242Z" fill="#A5C474"/>
<path opacity="0.51" d="M81.1864 111.762C79.431 111.8 77.6757 111.856 75.9203 111.894C76.6753 111.762 82.2623 110.648 85.0369 105.401C86.8867 101.928 86.4714 98.5683 86.2638 97.3981C86.83 97.4547 87.4152 97.5302 87.9814 97.5868C88.189 98.5872 88.9818 102.947 86.3393 107.156C84.6217 109.874 82.3 111.215 81.1864 111.762Z" fill="#A5C474"/>
<path opacity="0.51" d="M245.814 112.649C244.059 112.687 242.303 112.743 240.548 112.781C241.303 112.649 246.89 111.535 249.665 106.288C251.514 102.815 251.099 99.4554 250.892 98.2852C251.458 98.3418 252.043 98.4173 252.609 98.4739C252.817 99.4743 253.61 103.834 250.967 108.044C249.249 110.762 246.928 112.102 245.814 112.649Z" fill="#A5C474"/>
<path opacity="0.51" d="M216.237 96.6242C216.935 96.5864 217.653 96.5487 218.351 96.5109C218.125 95.133 217.634 90.8296 220.144 86.5638C224.07 79.8821 231.847 79.2403 232.564 79.2025V77.1074C232.017 77.1263 221.937 77.8247 217.653 86.1674C215.388 90.6031 215.916 94.9254 216.237 96.6242Z" fill="#A5C474"/>
<path opacity="0.51" d="M221.616 112.649C223.372 112.687 225.127 112.743 226.883 112.781C226.128 112.649 220.541 111.535 217.766 106.288C215.916 102.815 216.331 99.4554 216.539 98.2852C215.973 98.3418 215.388 98.4173 214.821 98.4739C214.614 99.4743 213.821 103.834 216.464 108.044C218.181 110.762 220.503 112.102 221.616 112.649Z" fill="#A5C474"/>
<path d="M230.488 77.7681C228.411 76.4846 226.713 74.6726 225.693 72.4453L224.731 70.3313C223.013 66.5941 219.955 63.6496 216.162 62.0829C215.633 61.7432 215.086 61.3846 214.557 61.0448V79.4479C217.37 80.2973 220.201 81.1278 223.013 81.9772C231.092 82.8832 233.055 82.1848 233.3 81.3732C233.489 80.7503 233.149 79.4291 230.506 77.7869L230.488 77.7681Z" fill="#2E0C10"/>
</svg>
